<svg xmlns="http://www.w3.org/2000/svg" width="575.76" height="156.72" viewBox="0 0 575.76 156.72">
  <path id="パス_8" data-name="パス 8" d="M101.92,62.24q0,16.8-18.56,26.72a60.931,60.931,0,0,1-17.76,6.4q9.76,2.4,14.4,6.4,6.24,5.44,6.24,14.56a31.373,31.373,0,0,1-5.2,17.12,37.664,37.664,0,0,1-14,12.96q-10.72,5.92-39.68,5.92H23.52q-3.36-.16-6.4-.16H2.56q-9.44,0-10.88.16h-.96q-1.76,0-1.76-1.28,0-1.76,2.08-1.6l7.04.64a63.842,63.842,0,0,0,7.28-.8,3.346,3.346,0,0,0,2-2.08q.32-.96,1.2-2.88T13.6,132L41.76,61.92q5.12-12.8,5.12-15.04,0-2.72-11.84-2.72-2.4,0-2.4-1.28,0-1.12,2.56-1.28l8-.32H72.16q15.04,0,21.6,4.64Q101.92,51.68,101.92,62.24ZM86.56,58.56q0-14.24-16.8-14.24-3.04,0-5.92.16-1.44,2.88-3.36,7.84L44.96,92.8a40.12,40.12,0,0,0,5.28.32q19.68,0,28.64-11.2Q86.56,72.32,86.56,58.56ZM69.92,114.4q0-18.08-18.56-18.08a72.527,72.527,0,0,0-8.32.48l-17.6,44.96a31.39,31.39,0,0,0-1.92,5.76q0,2.24,2.56,2.24,16.96,0,26.24-5.28Q69.92,134.4,69.92,114.4Zm154.4-5.44q0,18.72-17.12,33.76-13.44,11.84-28,11.84a21.309,21.309,0,0,1-16.32-6.88q-6.4-6.88-6.4-17.76a39.891,39.891,0,0,1,5.28-19.04,52.811,52.811,0,0,1,14.08-16.64Q189.6,83.52,202.4,83.52a19.938,19.938,0,0,1,15.84,7.04Q224.32,97.6,224.32,108.96ZM212,98.56q0-12.16-10.88-12.16-13.28,0-23.04,19.04-9.28,18.24-9.28,34.24,0,12,10.72,12,13.44,0,22.4-17.28Q212,114.88,212,98.56ZM315.04,40a11.345,11.345,0,0,1-.8,2.24q-.48,1.28-1.6,3.84L276.8,133.6q-4,9.76-4,12.64,0,4.32,5.76,4.32t11.52-6.72q2.4-2.88,3.04-2.88a.99.99,0,0,1,1.12,1.12q0,2.08-5.28,6.72-6.08,5.44-15.68,5.44-13.12,0-13.12-9.76,0-3.2,4-12.96L300,44.16a5.063,5.063,0,0,0,.48-1.12q0-1.44-3.04-1.44-7.04,0-7.04-1.28,0-.96,1.44-.96t4.4.16q2.96.16,4.4.16a59.68,59.68,0,0,0,10.24-.64,16.369,16.369,0,0,1,2.4-.32Q315.04,38.72,315.04,40Zm82.08-.8a8.776,8.776,0,0,1-.48,1.12Q396,41.6,394.88,44L358.4,132.48q-4.16,10.08-4.16,12.48,0,4.48,5.12,4.48,7.68,0,13.12-8.48,1.76-2.72,2.4-2.72,1.12,0,1.12,1.28,0,2.72-5.44,7.68a23.248,23.248,0,0,1-16.16,6.08q-12,0-12-10.24a37.713,37.713,0,0,1,.32-4.64q-5.92,8.48-11.36,12.08a22.656,22.656,0,0,1-12.8,3.6q-8.96,0-14.64-5.68t-5.68-14.8q0-18.88,17.92-35.68,16.16-15.2,30.88-15.2,10.24,0,13.6,9.76l.96-1.92,1.12-2.4,18.24-43.84a2.416,2.416,0,0,0,.64-1.44,1.225,1.225,0,0,0-.88-1.36,50.7,50.7,0,0,0-6-.56q-3.04-.16-3.04-1.12t1.76-.96h1.92q2.08,0,6,.16t5.68.16q6.08,0,7.84-.64a5.237,5.237,0,0,1,1.28-.32A.849.849,0,0,1,397.12,39.2ZM358.56,95.68a8.492,8.492,0,0,0-3.36-6.56,11.265,11.265,0,0,0-7.52-2.88q-11.84,0-24.16,19.84-11.68,18.72-11.68,31.68,0,11.68,10.56,11.68,9.28,0,18.24-12.96a97.229,97.229,0,0,0,11.04-21.28l3.68-9.44Q358.56,97.6,358.56,95.68ZM435.04,40a11.345,11.345,0,0,1-.8,2.24q-.48,1.28-1.6,3.84L396.8,133.6q-4,9.76-4,12.64,0,4.32,5.76,4.32t11.52-6.72q2.4-2.88,3.04-2.88a.99.99,0,0,1,1.12,1.12q0,2.08-5.28,6.72-6.08,5.44-15.68,5.44-13.12,0-13.12-9.76,0-3.2,4-12.96L420,44.16a5.063,5.063,0,0,0,.48-1.12q0-1.44-3.04-1.44-7.04,0-7.04-1.28,0-.96,1.44-.96t4.4.16q2.96.16,4.4.16a59.68,59.68,0,0,0,10.24-.64,16.369,16.369,0,0,1,2.4-.32Q435.04,38.72,435.04,40ZM562.72,88.32q0,5.6-5.44,5.6-2.56,0-3.68-3.04-.32-.64-.8-.64-1.6,0-6.88,8.64l-16.48,26.88q-.96,1.76-22.56,34.56-11.2,17.12-23.2,26.88-7.04,5.76-13.92,5.76-7.2,0-7.2-5.28a5.81,5.81,0,0,1,1.92-4.48,6.834,6.834,0,0,1,4.8-1.76q2.08,0,2.64.64t.72,3.84q.16,2.4,2.24,2.4,2.88,0,8.88-5.12a78.561,78.561,0,0,0,11.28-12q8-10.4,8-18.08,0-2.24-.16-4v-3.84l-.32-46.08q0-11.04-4.8-11.04-5.76,0-11.04,12.32-1.92,4.48-3.2,4.48t-1.28-1.44q0-3.2,4.8-10.4Q494.24,82.4,504,82.4q7.2,0,9.12,4.8,1.44,3.68,1.44,12.32v4.32l-.48,28.48q0,5.92.32,11.84l2.56-3.84q1.6-2.88,5.12-8.64l5.12-7.84,13.76-22.72q7.84-12.8,10.16-15.52a7.52,7.52,0,0,1,6-2.72Q562.72,82.88,562.72,88.32Z" transform="translate(12.04 -37.24)" fill="#0014ff" stroke="#fff" stroke-width="2" style="mix-blend-mode: multiply;isolation: isolate"/>
</svg>
