<svg xmlns="http://www.w3.org/2000/svg" width="313.25" height="23.098" viewBox="0 0 313.25 23.098">
  <path id="パス_20" data-name="パス 20" d="M7.125,28.4c3.975,0,6.475-1.7,7.075-4.5.675-3.15-.975-4.9-4.35-5.675l-1.5-.35c-2.95-.7-3.825-1.625-3.45-3.55.35-1.75,1.975-2.625,4.475-2.625,3.55,0,4.35,1.5,4.025,3.675h2.125c.45-2.9-.75-5.575-6-5.575-3.5,0-6.175,1.5-6.75,4.375C2.125,17.45,4.4,19.05,7,19.65L8.5,20c2.95.7,3.975,1.6,3.55,3.675C11.7,25.4,10.15,26.5,7.35,26.5c-3.2,0-5.05-1.225-4.65-4.375H.525C-.05,26.275,2.75,28.4,7.125,28.4Zm19.7-13.3-1.55,7.3A4.708,4.708,0,0,1,20.7,26.5c-1.65,0-2.6-.825-2.075-3.3l1.7-8.1h-2L16.6,23.075c-.775,3.55.8,5.225,3.6,5.225a5.846,5.846,0,0,0,4.35-2.025L24.175,28h1.9l2.75-12.9Zm7.1,13.2c3.375,0,5-1.425,5.375-3.225.525-2.575-.55-3.775-3.525-4.375l-1-.2c-1.725-.35-2.5-.9-2.25-2.175.225-1.1,1.375-1.8,3.1-1.8,1.95,0,2.95.6,2.675,2.55h1.975c.325-2.775-1.15-4.275-4.45-4.275-2.775,0-4.775,1.15-5.225,3.225-.525,2.375.75,3.725,3.35,4.225l.925.175c2.15.4,2.75,1,2.45,2.375-.225,1.05-1.2,1.775-3.225,1.775-2.3,0-3.25-.725-3.1-2.675H29C28.675,26.925,30.375,28.3,33.925,28.3Zm11.45-11.45h2.65L48.4,15.1H45.75l.775-3.65h-2L43.75,15.1H41.625l-.375,1.75h2.125l-1.7,7.95c-.45,2.125.575,3.275,2.725,3.275.4,0,.7-.025,1.25-.075L46,26.325H44.825c-1.05,0-1.35-.475-1.15-1.45ZM73.85,19.3c.625-2.9-.75-4.5-4.275-4.5-3.475,0-4.975,1.4-5.75,4.275h1.95c.525-1.925,1.575-2.55,3.625-2.55,2.3,0,2.925.975,2.625,2.3-.225.975-1.05,1.35-2.375,1.5l-2.05.225c-3.3.35-4.925,1.525-5.325,3.3-.625,2.775,1.125,4.45,3.95,4.45A5.2,5.2,0,0,0,70.5,26.35a1.62,1.62,0,0,0,1.825,1.725,7.607,7.607,0,0,0,1.1-.075l.35-1.625H73.15c-.45,0-.75-.275-.575-1.075Zm-7.275,7.3c-1.9,0-2.6-.95-2.3-2.375.225-1.025.975-1.825,3.45-2.15l1.925-.25a4.5,4.5,0,0,0,1.85-.55L71.05,23.3A4.481,4.481,0,0,1,66.575,26.6ZM82.9,13.15h2.125l.5-2.45H83.4ZM79.8,28h2l2.75-12.9h-2ZM93.4,14.8a5.846,5.846,0,0,0-4.35,2.025l.375-1.725h-1.9L84.775,28h2l1.55-7.3A4.708,4.708,0,0,1,92.9,16.6c1.65,0,2.6.825,2.075,3.3l-1.7,8.1h2L97,20.025C97.775,16.475,96.2,14.8,93.4,14.8Zm35.7,4.5c.625-2.9-.75-4.5-4.275-4.5-3.475,0-4.975,1.4-5.75,4.275h1.95c.525-1.925,1.575-2.55,3.625-2.55,2.3,0,2.925.975,2.625,2.3-.225.975-1.05,1.35-2.375,1.5l-2.05.225c-3.3.35-4.925,1.525-5.325,3.3-.625,2.775,1.125,4.45,3.95,4.45a5.2,5.2,0,0,0,4.275-1.95,1.62,1.62,0,0,0,1.825,1.725,7.607,7.607,0,0,0,1.1-.075l.35-1.625H128.4c-.45,0-.75-.275-.575-1.075Zm-7.275,7.3c-1.9,0-2.6-.95-2.3-2.375.225-1.025.975-1.825,3.45-2.15l1.925-.25a4.5,4.5,0,0,0,1.85-.55L126.3,23.3A4.481,4.481,0,0,1,121.825,26.6ZM153.2,14.8a6.074,6.074,0,0,0-4.175,1.65l1.325-6.25h-2L144.55,28h1.9l.45-2.05a4.1,4.1,0,0,0,4.05,2.35c3.675,0,6.3-2.625,7.1-6.4C158.95,17.6,156.95,14.8,153.2,14.8Zm2.775,6.925c-.6,2.9-2.475,4.825-4.95,4.825-2.675,0-4-1.85-3.275-5.2.65-3.05,2.5-4.75,5.15-4.75C155.4,16.6,156.675,18.325,155.975,21.725Zm15.75-8.575h2.125l.5-2.45h-2.125ZM168.625,28h2l2.75-12.9h-2Zm5,0h2L179.4,10.2h-2ZM191.2,13.15h2.125l.5-2.45H191.7ZM188.1,28h2l2.75-12.9h-2Zm15.1-11.15h2.65l.375-1.75h-2.65l.775-3.65h-2l-.775,3.65H199.45l-.375,1.75H201.2l-1.7,7.95c-.45,2.125.575,3.275,2.725,3.275.4,0,.7-.025,1.25-.075l.35-1.675H202.65c-1.05,0-1.35-.475-1.15-1.45ZM311.475,15.1,308.5,20.45c-1.05,1.875-2.075,3.75-3.025,5.6-.4-3.45-.425-3.575-.675-5.575l-.675-5.375h-2.15l1.975,13.3-.675,1.125a2.83,2.83,0,0,1-2.65,1.625H299.45l-.35,1.675a10.853,10.853,0,0,0,1.425.075c2.325,0,3.35-.85,4.575-2.95l8.6-14.85Z" transform="translate(-0.45 -9.801)" fill="#0014ff" style="mix-blend-mode: multiply;isolation: isolate"/>
</svg>
