<svg xmlns="http://www.w3.org/2000/svg" width="1108.99" height="363.506" viewBox="0 0 1108.99 363.506">
  <g id="グループ_138" data-name="グループ 138" transform="translate(-85.505 -26543.498)">
    <g id="グループ_94" data-name="グループ 94" style="mix-blend-mode: multiply;isolation: isolate">
      <path id="パス_427" data-name="パス 427" d="M167.618,542.5c-38.5,0-72,20-94.5,50l9.5-44h-27l-55,258h28.5L59.618,662c14-65.5,59.5-94,101.5-94,40.5,0,61.5,22,49.5,78l-33.5,160.5h28l34-158.5c15.5-72-15-105.5-71.5-105.5" transform="translate(85.505 26001.498)" fill="#0f1bf9"/>
      <path id="パス_428" data-name="パス 428" d="M167.618,542.5c-38.5,0-72,20-94.5,50l9.5-44h-27l-55,258h28.5L59.618,662c14-65.5,59.5-94,101.5-94,40.5,0,61.5,22,49.5,78l-33.5,160.5h28l34-158.5C254.618,576,224.118,542.5,167.618,542.5Z" transform="translate(85.505 26001.498)" fill="none" stroke="#fff" stroke-width="1"/>
    </g>
    <g id="グループ_95" data-name="グループ 95" style="mix-blend-mode: multiply;isolation: isolate">
      <path id="パス_429" data-name="パス 429" d="M632.118,542.5c-69.5,0-123.5,55-139,128-18.5,88.5,20,142,91.5,142,61,0,103-32.5,124-88.5h-29.5c-17.5,42-50,62.5-91.5,62.5-52,0-78-35-68-99.5h201l3-10c17.5-74.5-15-134.5-91.5-134.5m64.5,119h-172c16-59,55.5-93,104-93,54.5,0,77,40.5,68,93" transform="translate(85.505 26001.498)" fill="#0f1bf9"/>
      <path id="パス_430" data-name="パス 430" d="M632.118,542.5c-69.5,0-123.5,55-139,128-18.5,88.5,20,142,91.5,142,61,0,103-32.5,124-88.5h-29.5c-17.5,42-50,62.5-91.5,62.5-52,0-78-35-68-99.5h201l3-10C741.118,602.5,708.618,542.5,632.118,542.5Zm64.5,119h-172c16-59,55.5-93,104-93C683.118,568.5,705.618,609,696.618,661.5Z" transform="translate(85.505 26001.498)" fill="none" stroke="#fff" stroke-width="1"/>
    </g>
    <g id="グループ_96" data-name="グループ 96" style="mix-blend-mode: multiply;isolation: isolate">
      <path id="パス_431" data-name="パス 431" d="M1076.618,548.5l-71.5,125c-20,36-40.5,71.5-60,107-9.5-68-9.5-69.5-15-107l-20-125h-30.5l44,265.5-13.5,22.5c-15,25.5-31.5,43.5-60,43.5h-21.5l-5,23.5a178.723,178.723,0,0,0,24.5,1.5c44,0,64-21.5,88-62.5l172-294Z" transform="translate(85.505 26001.498)" fill="#0f1bf9"/>
      <path id="パス_432" data-name="パス 432" d="M1076.618,548.5l-71.5,125c-20,36-40.5,71.5-60,107-9.5-68-9.5-69.5-15-107l-20-125h-30.5l44,265.5-13.5,22.5c-15,25.5-31.5,43.5-60,43.5h-21.5l-5,23.5a178.723,178.723,0,0,0,24.5,1.5c44,0,64-21.5,88-62.5l172-294Z" transform="translate(85.505 26001.498)" fill="none" stroke="#fff" stroke-width="1"/>
    </g>
  </g>
</svg>
