<svg xmlns="http://www.w3.org/2000/svg" width="116.111" height="94.4" viewBox="0 0 116.111 94.4">
  <g id="グループ_141" data-name="グループ 141" transform="translate(-257.779 -5915.199)">
    <g id="グループ_139" data-name="グループ 139" style="mix-blend-mode: multiply;isolation: isolate">
      <path id="パス_310" data-name="パス 310" d="M30.611,67.8c-11.6,0-20.7-4.3-20.9-17.5h-8.7c.2,17.8,12.6,25.1,29.6,25.1,17.1,0,26.7-8.3,26.7-20.9,0-10.3-5.8-16.7-22.2-20.3l-6.3-1.4c-13.4-3-16.7-6.4-16.7-13.2,0-6.7,5.3-11,15.6-11,14.2,0,18.5,5.5,19.2,14.7h8.6c-.3-11.6-6.8-22.3-27.8-22.3-14.8,0-24.3,7.2-24.3,18.6,0,13,9.5,17.9,21.6,20.6l6.3,1.4c12.6,2.8,17.3,6.1,17.3,12.9,0,8.8-6.6,13.3-18,13.3" transform="translate(257.779 5915.199)" fill="#0f1bf9"/>
      <path id="パス_311" data-name="パス 311" d="M30.611,67.8c-11.6,0-20.7-4.3-20.9-17.5h-8.7c.2,17.8,12.6,25.1,29.6,25.1,17.1,0,26.7-8.3,26.7-20.9,0-10.3-5.8-16.7-22.2-20.3l-6.3-1.4c-13.4-3-16.7-6.4-16.7-13.2,0-6.7,5.3-11,15.6-11,14.2,0,18.5,5.5,19.2,14.7h8.6c-.3-11.6-6.8-22.3-27.8-22.3-14.8,0-24.3,7.2-24.3,18.6,0,13,9.5,17.9,21.6,20.6l6.3,1.4c12.6,2.8,17.3,6.1,17.3,12.9C48.611,63.3,42.011,67.8,30.611,67.8Z" transform="translate(257.779 5915.199)" fill="none" stroke="#fff" stroke-width="2"/>
    </g>
    <g id="グループ_140" data-name="グループ 140" style="mix-blend-mode: multiply;isolation: isolate">
      <path id="パス_312" data-name="パス 312" d="M115.111,48c0-16.5-9.5-27-24-27-7.7,0-13.8,3.3-17.7,9.2v-8h-7.6V93.4h8v-27c3.9,5.5,9.8,8.6,17.3,8.6,14.5,0,24-10.5,24-27m-41.6,0c0-12.5,6.6-19.8,16.6-19.8s16.6,6.9,16.6,19.4-6.6,20.2-16.6,20.2-16.6-7.3-16.6-19.8" transform="translate(257.779 5915.199)" fill="#0f1bf9"/>
      <path id="パス_313" data-name="パス 313" d="M115.111,48c0-16.5-9.5-27-24-27-7.7,0-13.8,3.3-17.7,9.2v-8h-7.6V93.4h8v-27c3.9,5.5,9.8,8.6,17.3,8.6C105.611,75,115.111,64.5,115.111,48Zm-41.6,0c0-12.5,6.6-19.8,16.6-19.8s16.6,6.9,16.6,19.4-6.6,20.2-16.6,20.2S73.511,60.5,73.511,48Z" transform="translate(257.779 5915.199)" fill="none" stroke="#fff" stroke-width="2"/>
    </g>
  </g>
</svg>
