<svg xmlns="http://www.w3.org/2000/svg" width="1108.99" height="905.5" viewBox="0 0 1108.99 905.5">
  <path id="パス_17" data-name="パス 17" d="M107.5,562.5C173,562.5,215,525,230,454l54-255H254.5l-54,254c-11,54-42.5,83-89.5,83-51,0-78.5-30.5-66-88.5l3.5-16h-29l-3,11.5C-.5,516,37,562.5,107.5,562.5ZM378,561c67,0,125-54,140.5-128.5C537.5,345,499,291,422,291c-67.5,0-125.5,54-141,128.5C262,507,300,561,378,561Zm.5-25.5c-56.5,0-84-42-68.5-113.5,12.5-60,57.5-105.5,111.5-105.5,57,0,83.5,42.5,68,113C476,493,431.5,535.5,378.5,535.5ZM877.5,297,847,441.5c-14,65.5-59.5,94-101.5,94-40.5,0-61.5-22-49.5-78L729.5,297h-28l-34,158.5C652,527.5,682.5,561,739,561c38.5,0,72-20,94.5-50L824,555h27l55-258Zm205.5-3.5c-46,0-80,24.5-100,52.5l10-49H966L911.5,555h28l31-143.5c11-55.5,51.5-90.5,109-90.5H1092l5.5-27C1092,293.5,1087,293.5,1083,293.5ZM169.5,741c-38.5,0-72,20-94.5,50l9.5-44h-27l-55,258H31L61.5,860.5c14-65.5,59.5-94,101.5-94,40.5,0,61.5,22,49.5,78L179,1005h28l34-158.5C256.5,774.5,226,741,169.5,741ZM634,741c-69.5,0-123.5,55-139,128-18.5,88.5,20,142,91.5,142,61,0,103-32.5,124-88.5H681c-17.5,42-50,62.5-91.5,62.5-52,0-78-35-68-99.5h201l3-10C743,801,710.5,741,634,741Zm-3.5,26c54.5,0,77,40.5,68,93h-172C542.5,801,582,767,630.5,767Zm448-20L1007,872c-20,36-40.5,71.5-60,107-9.5-68-9.5-69.5-15-107L912,747H881.5l44,265.5L912,1035c-15,25.5-31.5,43.5-60,43.5H830.5l-5,23.5a178.844,178.844,0,0,0,24.5,1.5c44,0,64-21.5,88-62.5l172-294Z" transform="translate(-1.882 -198.5)" fill="#0014ff" stroke="#fff" stroke-width="1" style="mix-blend-mode: multiply;isolation: isolate"/>
</svg>
