<svg xmlns="http://www.w3.org/2000/svg" width="56.64" height="21.719" viewBox="0 0 56.64 21.719">
  <path id="パス_16" data-name="パス 16" d="M16.11,33h2.58L14.58,11.64H11.76L-1.29,33H1.44l3.78-6.21h9.72ZM6.6,24.51l.15-.24c2.37-3.9,3.78-6.21,5.94-9.9.54,3.15,1.11,6.45,1.77,9.87l.06.27Zm24.48-7.35a7.016,7.016,0,0,0-5.22,2.43l.45-2.07H24.03L20.73,33h2.4l1.86-8.76a5.65,5.65,0,0,1,5.49-4.92c1.98,0,3.12.99,2.49,3.96L30.93,33h2.4l2.07-9.57C36.33,19.17,34.44,17.16,31.08,17.16Zm21.87-5.52-1.74,8.13a5.01,5.01,0,0,0-4.77-2.61c-4.41,0-7.56,3.15-8.52,7.68-1.08,5.16,1.32,8.52,5.82,8.52a7.49,7.49,0,0,0,5.16-2.1L48.51,33h2.28l4.56-21.36ZM44.1,31.2c-3,0-4.53-2.07-3.69-6.15.72-3.48,2.97-5.79,5.94-5.79,3.21,0,4.8,2.22,3.93,6.24C49.5,29.16,47.28,31.2,44.1,31.2Z" transform="translate(1.29 -11.641)" fill="#0014ff" style="mix-blend-mode: multiply;isolation: isolate"/>
</svg>
