<svg xmlns="http://www.w3.org/2000/svg" width="1086.321" height="364.5" viewBox="0 0 1086.321 364.5">
  <g id="グループ_137" data-name="グループ 137" transform="translate(-95.404 -26001.498)">
    <g id="グループ_90" data-name="グループ 90" style="mix-blend-mode: multiply;isolation: isolate">
      <path id="パス_419" data-name="パス 419" d="M105.618,364c65.5,0,107.5-37.5,122.5-108.5l54-255h-29.5l-54,254c-11,54-42.5,83-89.5,83-51,0-78.5-30.5-66-88.5l3.5-16h-29l-3,11.5c-17,73,20.5,119.5,91,119.5" transform="translate(85.505 26001.498)" fill="#0f1bf9"/>
      <path id="パス_420" data-name="パス 420" d="M105.618,364c65.5,0,107.5-37.5,122.5-108.5l54-255h-29.5l-54,254c-11,54-42.5,83-89.5,83-51,0-78.5-30.5-66-88.5l3.5-16h-29l-3,11.5C-2.382,317.5,35.118,364,105.618,364Z" transform="translate(85.505 26001.498)" fill="none" stroke="#fff" stroke-width="1"/>
    </g>
    <g id="グループ_91" data-name="グループ 91" style="mix-blend-mode: multiply;isolation: isolate">
      <path id="パス_421" data-name="パス 421" d="M420.118,92.5c-67.5,0-125.5,54-141,128.5-19,87.5,19,141.5,97,141.5,67,0,125-54,140.5-128.5,19-87.5-19.5-141.5-96.5-141.5m67.5,138.5c-13.5,63.5-58,106-111,106-56.5,0-84-42-68.5-113.5,12.5-60,57.5-105.5,111.5-105.5,57,0,83.5,42.5,68,113" transform="translate(85.505 26001.498)" fill="#0f1bf9"/>
      <path id="パス_422" data-name="パス 422" d="M420.118,92.5c-67.5,0-125.5,54-141,128.5-19,87.5,19,141.5,97,141.5,67,0,125-54,140.5-128.5C535.618,146.5,497.118,92.5,420.118,92.5Zm67.5,138.5c-13.5,63.5-58,106-111,106-56.5,0-84-42-68.5-113.5,12.5-60,57.5-105.5,111.5-105.5C476.618,118,503.118,160.5,487.618,231Z" transform="translate(85.505 26001.498)" fill="none" stroke="#fff" stroke-width="1"/>
    </g>
    <g id="グループ_92" data-name="グループ 92" style="mix-blend-mode: multiply;isolation: isolate">
      <g id="グループ_136" data-name="グループ 136">
        <g id="グループ_135" data-name="グループ 135">
          <g id="グループ_134" data-name="グループ 134">
            <path id="パス_423" data-name="パス 423" d="M849.118,356.5l55-258h-28.5L845.118,243c-14,65.5-59.5,94-101.5,94-40.5,0-61.5-22-49.5-78l33.5-160.5h-28l-34,158.5c-15.5,72,15,105.5,71.5,105.5,38.5,0,72-20,94.5-50l-9.5,44Z" transform="translate(85.505 26001.498)" fill="#0f1bf9"/>
            <path id="パス_424" data-name="パス 424" d="M849.118,356.5l55-258h-28.5L845.118,243c-14,65.5-59.5,94-101.5,94-40.5,0-61.5-22-49.5-78l33.5-160.5h-28l-34,158.5c-15.5,72,15,105.5,71.5,105.5,38.5,0,72-20,94.5-50l-9.5,44Z" transform="translate(85.505 26001.498)" fill="none" stroke="#fff" stroke-width="1"/>
          </g>
        </g>
      </g>
    </g>
    <g id="グループ_93" data-name="グループ 93" style="mix-blend-mode: multiply;isolation: isolate">
      <path id="パス_425" data-name="パス 425" d="M968.618,213c11-55.5,51.5-90.5,109-90.5h12.5l5.5-27c-5.5-.5-10.5-.5-14.5-.5-46,0-80,24.5-100,52.5l10-49h-27l-54.5,258h28Z" transform="translate(85.505 26001.498)" fill="#0f1bf9"/>
      <path id="パス_426" data-name="パス 426" d="M968.618,213c11-55.5,51.5-90.5,109-90.5h12.5l5.5-27c-5.5-.5-10.5-.5-14.5-.5-46,0-80,24.5-100,52.5l10-49h-27l-54.5,258h28Z" transform="translate(85.505 26001.498)" fill="none" stroke="#fff" stroke-width="1"/>
    </g>
  </g>
</svg>
