<svg xmlns="http://www.w3.org/2000/svg" width="343.32" height="28.08" viewBox="0 0 343.32 28.08">
  <path id="パス_29" data-name="パス 29" d="M9.78,33.48c5.13,0,8.01-2.49,8.01-6.27,0-3.09-1.74-5.01-6.66-6.09L9.24,20.7c-4.02-.9-5.01-1.92-5.01-3.96,0-2.01,1.59-3.3,4.68-3.3,4.26,0,5.55,1.65,5.76,4.41h2.58c-.09-3.48-2.04-6.69-8.34-6.69-4.44,0-7.29,2.16-7.29,5.58,0,3.9,2.85,5.37,6.48,6.18l1.89.42c3.78.84,5.19,1.83,5.19,3.87,0,2.64-1.98,3.99-5.4,3.99-3.48,0-6.21-1.29-6.27-5.25H.9C.96,31.29,4.68,33.48,9.78,33.48Zm18.81-.03c5.34,0,8.4-3.03,8.4-8.37V11.64H34.47V25.08c0,4.2-2.16,6.09-5.88,6.09s-5.88-1.89-5.88-6.09V11.64H20.19V25.08C20.19,30.42,23.25,33.45,28.59,33.45ZM58.56,11.64,53.79,23.43c-.87,2.1-1.86,4.77-2.52,6.51-.63-1.65-1.56-4.05-2.43-6.15L43.89,11.64h-3.3V33h2.46V26.16c0-2.85,0-6.75-.09-10.89.57,1.59,1.14,3.03,1.89,4.86L50.16,33h2.16L57.6,20.13c.75-1.83,1.32-3.27,1.89-4.86-.09,4.14-.09,8.04-.09,10.89V33h2.46V11.64Zm25.17,0L78.96,23.43c-.87,2.1-1.86,4.77-2.52,6.51-.63-1.65-1.56-4.05-2.43-6.15L69.06,11.64h-3.3V33h2.46V26.16c0-2.85,0-6.75-.09-10.89.57,1.59,1.14,3.03,1.89,4.86L75.33,33h2.16l5.28-12.87c.75-1.83,1.32-3.27,1.89-4.86-.09,4.14-.09,8.04-.09,10.89V33h2.46V11.64Zm22.05,2.28V11.64H90.93V33h14.73V30.72H93.45V23.01h11.13V20.73H93.45V13.92Zm18.6,16.35-.21-3.45c-.15-2.22-1.08-3.6-2.94-4.2a5.03,5.03,0,0,0,3.51-5.16c0-3.81-3.03-5.82-7.23-5.82h-9.03V33H111V23.88h6.96c2.55,0,3.69,1.02,3.81,3.99l.09,2.28a5.341,5.341,0,0,0,.69,2.85h2.61A5.569,5.569,0,0,1,124.38,30.27Zm-6.57-8.67H111V13.92h6.51c2.79,0,4.62,1.14,4.62,3.69C122.13,20.31,120.3,21.6,117.81,21.6Zm34.41-4.08-2.19,6.99c-.57,1.86-1.14,3.72-1.65,5.58-.54-1.86-1.11-3.72-1.68-5.58l-2.16-6.99h-2.52l-2.16,6.99c-.6,1.89-1.14,3.75-1.65,5.64-.54-1.89-1.08-3.75-1.68-5.64l-2.19-6.99h-2.58L136.92,33h2.52l2.25-7.17c.54-1.71,1.08-3.51,1.59-5.25.48,1.74,1.02,3.54,1.56,5.25L147.12,33h2.52l5.16-15.48Zm4.29-2.34h2.55V12.24h-2.55ZM156.6,33H159V17.52h-2.4Zm12.78-13.38v-2.1H166.2V13.14h-2.4v4.38h-2.55v2.1h2.55V29.88c0,2.37,1.47,3.21,3.87,3.21q.72,0,1.71-.09V30.99h-1.41c-1.38,0-1.77-.51-1.77-1.32V19.62Zm9.69-2.46a5.7,5.7,0,0,0-4.74,2.49V11.64h-2.4V33h2.4V24.24c0-3.42,2.25-4.92,4.26-4.92,2.22,0,3.54,1.05,3.54,3.45V33h2.4V22.53C184.53,19.11,182.52,17.16,179.07,17.16Zm32.43-5.52h-3.33L196.5,22.86V11.64h-2.52V33h2.52V25.89l4.05-3.87L208.41,33h3.09l-9.12-12.66Zm1.41,3.54h2.55V12.24h-2.55ZM213,33h2.4V17.52H213Zm16.38,0h2.79l-6.3-9.9,5.88-5.58h-3.18l-7.17,6.93V11.64H219V33h2.4V27.27l2.76-2.58Zm10.44.36c4.35,0,7.5-3.15,7.5-8.1s-3.15-8.1-7.5-8.1-7.5,3.15-7.5,8.1S235.47,33.36,239.82,33.36Zm0-2.16c-3,0-4.98-2.19-4.98-5.94s1.98-5.94,4.98-5.94,4.98,2.19,4.98,5.94S242.82,31.2,239.82,31.2Zm16.2,1.8h2.52V11.64h-2.52Zm13.41-15.84a5.7,5.7,0,0,0-4.86,2.67V17.52h-2.28V33h2.4V24.24c0-3.42,2.25-4.92,4.26-4.92,2.22,0,3.54,1.05,3.54,3.45V33h2.4V22.53C274.89,19.11,272.88,17.16,269.43,17.16Zm21.72,13.89c-.57,0-.84-.27-.84-.75V21.66c0-2.61-1.53-4.5-5.82-4.5-4.53,0-6.12,2.13-6.3,5.13h2.4c.15-2.31,1.26-3.06,3.9-3.06s3.48.81,3.48,2.43c0,1.38-.87,1.95-2.43,2.13l-2.22.24c-4.26.45-5.73,2.37-5.73,4.8,0,2.91,2.1,4.53,5.46,4.53a5.674,5.674,0,0,0,5.04-2.49c.12,1.47.9,2.22,2.61,2.22a9.128,9.128,0,0,0,1.32-.09V31.05Zm-7.98.27c-2.13,0-3.09-1.02-3.09-2.55,0-1.5.78-2.46,3.6-2.79l2.25-.27a3.994,3.994,0,0,0,2.04-.66v1.83C287.97,29.94,285.48,31.32,283.17,31.32Zm22.41-13.8v2.25a6.247,6.247,0,0,0-5.31-2.61c-4.35,0-7.2,3.15-7.2,8.1s2.85,8.1,7.2,8.1a6.255,6.255,0,0,0,5.19-2.46v1.5c0,3.21-1.71,4.8-4.8,4.8-2.43,0-3.9-.99-4.2-2.94h-2.4c.33,3,2.64,4.98,6.6,4.98,4.89,0,7.2-2.82,7.2-6.84V17.52ZM300.57,31.2c-3,0-4.98-2.31-4.98-5.94s1.98-5.94,4.98-5.94,4.98,2.19,4.98,5.94S303.57,31.2,300.57,31.2Zm23.55-.15c-.57,0-.84-.27-.84-.75V21.66c0-2.61-1.53-4.5-5.82-4.5-4.53,0-6.12,2.13-6.3,5.13h2.4c.15-2.31,1.26-3.06,3.9-3.06s3.48.81,3.48,2.43c0,1.38-.87,1.95-2.43,2.13l-2.22.24c-4.26.45-5.73,2.37-5.73,4.8,0,2.91,2.1,4.53,5.46,4.53a5.674,5.674,0,0,0,5.04-2.49c.12,1.47.9,2.22,2.61,2.22a9.128,9.128,0,0,0,1.32-.09V31.05Zm-7.98.27c-2.13,0-3.09-1.02-3.09-2.55,0-1.5.78-2.46,3.6-2.79l2.25-.27a3.994,3.994,0,0,0,2.04-.66v1.83C320.94,29.94,318.45,31.32,316.14,31.32ZM337.32,33h2.79l-6.3-9.9,5.88-5.58h-3.18l-7.17,6.93V11.64h-2.4V33h2.4V27.27l2.76-2.58Zm4.35-17.82h2.55V12.24h-2.55ZM341.76,33h2.4V17.52h-2.4Z" transform="translate(-0.9 -11.16)" fill="#0014ff" style="mix-blend-mode: multiply;isolation: isolate"/>
</svg>
