<svg xmlns="http://www.w3.org/2000/svg" width="117.84" height="258.32" viewBox="0 0 117.84 258.32">
  <path id="パス_7" data-name="パス 7" d="M80.16,83.84a16.307,16.307,0,0,1-1.28,3.36l-21.12,48q-3.04,6.88-3.04,10.56,0,4.16,4.16,4.16,6.24,0,12.48-8.48,1.28-1.76,1.92-1.76a.566.566,0,0,1,.64.64q0,1.76-3.52,5.6a22.233,22.233,0,0,1-16.8,7.52,12.881,12.881,0,0,1-8.08-2.4,7.514,7.514,0,0,1-3.12-6.24,17.309,17.309,0,0,1,1.12-5.6q-10.08,14.88-23.36,14.88a18.26,18.26,0,0,1-13.6-5.36,18.678,18.678,0,0,1-5.28-13.68q0-9.12,6.08-20A76.4,76.4,0,0,1,23.52,95.2Q37.28,83.04,48.8,83.04q12,0,13.44,11.52l4-8.48q1.28-2.56,2.24-2.56a15.967,15.967,0,0,1,1.92.32,13.482,13.482,0,0,0,2.24.32,12.426,12.426,0,0,0,5.44-.96,1.975,1.975,0,0,1,1.12-.48Q80.16,82.72,80.16,83.84ZM60,97.44a10.979,10.979,0,0,0-2.96-8,10.145,10.145,0,0,0-7.6-3.04q-8,0-15.36,9.44a100.118,100.118,0,0,0-13.6,22.64q-5.12,11.92-5.12,20.88,0,10.88,8.96,10.88,5.12,0,11.12-5.6a45.573,45.573,0,0,0,10-14.08l12.48-26.88Q60,99.2,60,97.44Zm92.16-1.6q0,3.84-4.16,13.28L135.04,138.4q-2.24,5.12-2.24,6.88,0,3.36,3.68,3.36,4.48,0,13.12-7.36a2.735,2.735,0,0,1,1.28-.48q.96,0,.96.8,0,1.92-5.28,5.6a26.593,26.593,0,0,1-15.36,4.96,14.29,14.29,0,0,1-8.16-2.16,6.451,6.451,0,0,1-3.2-5.52q0-2.72,3.04-9.6l12.8-28.64q4.64-10.4,4.64-14.08,0-5.44-5.6-5.44-7.36,0-17.28,10.56-7.52,8-13.76,22.4l-13.12,30.4q-.8,2.4-2.08,2.4-.32,0-3.52-.32a7.328,7.328,0,0,0-1.92-.16q-1.28,0-4.32.32a3.546,3.546,0,0,1-1.12.16q-1.12,0-1.12-.8a1.943,1.943,0,0,1,.48-.96l1.12-2.4,24.48-58.88q.48-.8.8-1.44-.16-1.12-4-1.28-4.8-.16-4.8-1.76,0-1.12,1.76-1.12a29.779,29.779,0,0,1,3.52.32,30.055,30.055,0,0,0,3.68.32q8.64,0,11.36-1.28a5.21,5.21,0,0,1,1.44-.48.849.849,0,0,1,.96.96,1.781,1.781,0,0,1-.16.8L111.2,99.52q1.28-1.44,3.68-4,11.84-12.48,22.88-12.48a14.954,14.954,0,0,1,10.4,3.6A11.825,11.825,0,0,1,152.16,95.84ZM257.6,39.2a8.777,8.777,0,0,1-.48,1.12q-.64,1.28-1.76,3.68l-36.48,88.48q-4.16,10.08-4.16,12.48,0,4.48,5.12,4.48,7.68,0,13.12-8.48,1.76-2.72,2.4-2.72,1.12,0,1.12,1.28,0,2.72-5.44,7.68a23.248,23.248,0,0,1-16.16,6.08q-12,0-12-10.24a37.716,37.716,0,0,1,.32-4.64q-5.92,8.48-11.36,12.08a22.656,22.656,0,0,1-12.8,3.6q-8.96,0-14.64-5.68t-5.68-14.8q0-18.88,17.92-35.68,16.16-15.2,30.88-15.2,10.24,0,13.6,9.76l.96-1.92,1.12-2.4,18.24-43.84a2.416,2.416,0,0,0,.64-1.44,1.225,1.225,0,0,0-.88-1.36,50.7,50.7,0,0,0-6-.56q-3.04-.16-3.04-1.12t1.76-.96h1.92q2.08,0,6,.16t5.68.16q6.08,0,7.84-.64a5.237,5.237,0,0,1,1.28-.32A.849.849,0,0,1,257.6,39.2ZM219.04,95.68a8.492,8.492,0,0,0-3.36-6.56,11.265,11.265,0,0,0-7.52-2.88q-11.84,0-24.16,19.84-11.68,18.72-11.68,31.68,0,11.68,10.56,11.68,9.28,0,18.24-12.96a97.23,97.23,0,0,0,11.04-21.28l3.68-9.44Q219.04,97.6,219.04,95.68Z" transform="translate(155.08 -0.28) rotate(90)" fill="#0014ff" stroke="#fff" stroke-width="2" style="mix-blend-mode: multiply;isolation: isolate"/>
</svg>
