<svg xmlns="http://www.w3.org/2000/svg" width="557.2" height="98.7" viewBox="0 0 557.2 98.7">
  <path id="パス_10" data-name="パス 10" d="M66,40.5q0,9.5-8.8,15.95T35.5,62.9a75.714,75.714,0,0,1-9.4-.8L16.5,87Q16,88.3,15,91.1l-.6,1.5a1.163,1.163,0,0,0-.2.3q0,.7,1.3.7l7.7-.1q1,.2,1,.8,0,1-1.6.9L20,95.1.4,94.9a30.049,30.049,0,0,0-3.6.15q-1.1.15-.7.15-1.5,0-1.5-.9,0-1,1.3-1a5.619,5.619,0,0,1,1.1.1l5.2.1a2.828,2.828,0,0,0,2.6-1.65A61.821,61.821,0,0,0,7.5,85.5L28.1,32.6q.4-1.1,2-5.2a7.92,7.92,0,0,0-1.3-.1,31.426,31.426,0,0,0-3.2.2q-1.9.2-2.4.2-2.4,0-2.4-1t2-1h.8a13.72,13.72,0,0,0,1.7.1h1.2q1.7,0,3.6-.1l1.9-.1q14.1,0,20.6,1.2Q66,29.3,66,40.5ZM56,39.1q0-6.1-3.15-8.8T42.6,27.6a18.235,18.235,0,0,0-2.8.3L27,60.1a43.832,43.832,0,0,0,7.7,1q8.4,0,14.85-6.7A21.456,21.456,0,0,0,56,39.1ZM92.8,25a7.091,7.091,0,0,1-.5,1.4q-.3.8-1,2.4L68.9,83.5q-2.5,6.1-2.5,7.9,0,2.7,3.6,2.7t7.2-4.2q1.5-1.8,1.9-1.8a.619.619,0,0,1,.7.7q0,1.3-3.3,4.2a14.142,14.142,0,0,1-9.8,3.4q-8.2,0-8.2-6.1,0-2,2.5-8.1L83.4,27.6a3.164,3.164,0,0,0,.3-.7q0-.9-1.9-.9-4.4,0-4.4-.8,0-.6.9-.6t2.75.1q1.85.1,2.75.1a37.3,37.3,0,0,0,6.4-.4,10.231,10.231,0,0,1,1.5-.2Q92.8,24.2,92.8,25ZM205.5,52.4a10.192,10.192,0,0,1-.8,2.1l-13.2,30a18.114,18.114,0,0,0-1.9,6.6,2.3,2.3,0,0,0,2.6,2.6q3.9,0,7.8-5.3.8-1.1,1.2-1.1a.354.354,0,0,1,.4.4q0,1.1-2.2,3.5a13.9,13.9,0,0,1-10.5,4.7,8.05,8.05,0,0,1-5.05-1.5,4.7,4.7,0,0,1-1.95-3.9,10.818,10.818,0,0,1,.7-3.5q-6.3,9.3-14.6,9.3a11.413,11.413,0,0,1-8.5-3.35,11.674,11.674,0,0,1-3.3-8.55q0-5.7,3.8-12.5a47.749,47.749,0,0,1,10.1-12.4q8.6-7.6,15.8-7.6,7.5,0,8.4,7.2l2.5-5.3q.8-1.6,1.4-1.6a9.979,9.979,0,0,1,1.2.2,8.427,8.427,0,0,0,1.4.2,7.766,7.766,0,0,0,3.4-.6,1.234,1.234,0,0,1,.7-.3Q205.5,51.7,205.5,52.4Zm-12.6,8.5a6.862,6.862,0,0,0-1.85-5A6.341,6.341,0,0,0,186.3,54q-5,0-9.6,5.9a62.574,62.574,0,0,0-8.5,14.15Q165,81.5,165,87.1q0,6.8,5.6,6.8,3.2,0,6.95-3.5a28.483,28.483,0,0,0,6.25-8.8l7.8-16.8A11.508,11.508,0,0,0,192.9,60.9Zm84.2-5.7q0,3.5-3.4,3.5a2.425,2.425,0,0,1-2.3-1.9q-.2-.4-.5-.4-1,0-4.3,5.4L256.3,78.6q-.6,1.1-14.1,21.6A72.825,72.825,0,0,1,227.7,117q-4.4,3.6-8.7,3.6-4.5,0-4.5-3.3a3.631,3.631,0,0,1,1.2-2.8,4.271,4.271,0,0,1,3-1.1,2.3,2.3,0,0,1,1.65.4,5.058,5.058,0,0,1,.45,2.4q.1,1.5,1.4,1.5,1.8,0,5.55-3.2a49.1,49.1,0,0,0,7.05-7.5q5-6.5,5-11.3,0-1.4-.1-2.5V90.8L239.5,62q0-6.9-3-6.9-3.6,0-6.9,7.7-1.2,2.8-2,2.8t-.8-.9q0-2,3-6.5,4.5-6.7,10.6-6.7,4.5,0,5.7,3,.9,2.3.9,7.7v2.7l-.3,17.8q0,3.7.2,7.4l1.6-2.4q1-1.8,3.2-5.4l3.2-4.9,8.6-14.2a107.859,107.859,0,0,1,6.35-9.7,4.7,4.7,0,0,1,3.75-1.7Q277.1,51.8,277.1,55.2Zm44.8-24.5q0,3.9-3.7,3.9a3.263,3.263,0,0,1-2.25-.85A2.558,2.558,0,0,1,315,31.8a4.3,4.3,0,0,1,1.3-2.3,3.114,3.114,0,0,0,.4-1.3q0-2.5-4.2-2.5a8.356,8.356,0,0,0-7.1,3.75q-2.7,3.75-6.8,15.25l-2.7,7.6h10.3a6.856,6.856,0,0,1,1.3-.1.972.972,0,0,1,1.1,1.1q0,1.1-1.4,1.1l-11.7-.1-8.7,23.8q-9.4,25.7-18.3,35.9a25.724,25.724,0,0,1-6.65,5.75,15.025,15.025,0,0,1-7.25,1.65q-8.5,0-8.5-5.7,0-4.1,4.4-4.1,3,0,3,2.5a3.883,3.883,0,0,1-1,2.1,2.074,2.074,0,0,0-.6,1.3q0,2.2,3,2.2,5.2,0,8.9-5,2.9-4,7.6-17.3l15.1-42.9h-2.3l-5,.1a14.619,14.619,0,0,1-1.8.1q-1.2,0-1.2-.8,0-1.5,2.5-1.8.2,0,3.6.1l3.6.1h1.4q6-14.3,9.8-19.5,6.3-8.5,15.9-8.5a10.862,10.862,0,0,1,6.45,1.75A5.446,5.446,0,0,1,321.9,30.7Zm81.7,22.5-.2.5-.7,1.6L391.5,81.4q-3.4,7.9-3.4,9.8,0,2.7,2.6,2.7,3.7,0,8.2-5.2,1.1-1.3,1.5-1.3a.53.53,0,0,1,.6.6q0,2.4-5.9,6a13.824,13.824,0,0,1-7.2,2.1,8.443,8.443,0,0,1-5.1-1.6,4.56,4.56,0,0,1-2.2-3.7,12.378,12.378,0,0,1,.9-3.7l1.2-3.4q-6.7,7.7-10.15,10A14.893,14.893,0,0,1,364.1,96a11.974,11.974,0,0,1-6.4-1.55,4.63,4.63,0,0,1-2.5-4.05q0-2.7,2.2-7.6l10.3-23.1q.4-.9,1.7-3.5a1.74,1.74,0,0,0,.3-.7q0-.8-2.4-.8-3.2,0-3.2-1.1a.619.619,0,0,1,.7-.7,18.785,18.785,0,0,1,2.3.2,18.784,18.784,0,0,0,2.3.2,24.361,24.361,0,0,0,7.7-.9,3.273,3.273,0,0,1,.8-.2q.5,0,.5.6,0,.8-2,5.05t-3.7,8.75q-.4,1.1-3.1,7.3l-4,9.2q-2.5,5.7-2.5,8.1,0,2.9,3.7,2.9,3.9,0,10.1-6.4a57.674,57.674,0,0,0,11.6-18.2l6.4-15.2q.5-1.2,1.1-1.2-.1,0,2.1.2h.8a12.5,12.5,0,0,0,3.5-.3,2.293,2.293,0,0,1,.7-.2Q403.6,52.8,403.6,53.2ZM550.3,25a7.093,7.093,0,0,1-.5,1.4q-.3.8-1,2.4L526.4,83.5q-2.5,6.1-2.5,7.9,0,2.7,3.6,2.7t7.2-4.2q1.5-1.8,1.9-1.8a.619.619,0,0,1,.7.7q0,1.3-3.3,4.2a14.142,14.142,0,0,1-9.8,3.4q-8.2,0-8.2-6.1,0-2,2.5-8.1l22.4-54.6a3.163,3.163,0,0,0,.3-.7q0-.9-1.9-.9-4.4,0-4.4-.8,0-.6.9-.6t2.75.1q1.85.1,2.75.1a37.3,37.3,0,0,0,6.4-.4,10.231,10.231,0,0,1,1.5-.2Q550.3,24.2,550.3,25Z" transform="translate(6.15 -23.45)" fill="#0014ff" stroke="#fff" stroke-width="1.5" style="mix-blend-mode: multiply;isolation: isolate"/>
</svg>
