<svg xmlns="http://www.w3.org/2000/svg" width="208.341" height="646" viewBox="0 0 208.341 646">
  <path id="パス_9" data-name="パス 9" d="M32.6,112.6c17.1,0,26.7-8.3,26.7-20.9,0-10.3-5.8-16.7-22.2-20.3L30.8,70c-13.4-3-16.7-6.4-16.7-13.2,0-6.7,5.3-11,15.6-11,14.2,0,18.5,5.5,19.2,14.7h8.6c-.3-11.6-6.8-22.3-27.8-22.3-14.8,0-24.3,7.2-24.3,18.6,0,13,9.5,17.9,21.6,20.6l6.3,1.4c12.6,2.8,17.3,6.1,17.3,12.9,0,8.8-6.6,13.3-18,13.3-11.6,0-20.7-4.3-20.9-17.5H3C3.2,105.3,15.6,112.6,32.6,112.6ZM93.1,58.2c-7.7,0-13.8,3.3-17.7,9.2v-8H67.8v71.2h8v-27c3.9,5.5,9.8,8.6,17.3,8.6,14.5,0,24-10.5,24-27S107.6,58.2,93.1,58.2Zm-1,46.8c-10,0-16.6-7.3-16.6-19.8s6.6-19.8,16.6-19.8,16.6,6.9,16.6,19.4S102.1,105,92.1,105ZM28.5,302.2c14.5,0,25-10.5,25-27s-10.5-27-25-27-25,10.5-25,27S14,302.2,28.5,302.2Zm0-7.2c-10,0-16.6-7.3-16.6-19.8s6.6-19.8,16.6-19.8,16.6,7.3,16.6,19.8S38.5,295,28.5,295Zm77.7-46.4a18.02,18.02,0,0,0-16.6,9.9v-9.1H82V301h8V271.6c0-10,6.6-15.2,16.9-15.2h2v-7.7C107.8,248.6,107,248.6,106.2,248.6Zm52.8,7.8v-7H148.4V234.8h-8v14.6h-8.5v7h8.5v34.2c0,7.9,4.9,10.7,12.9,10.7q2.4,0,5.7-.3v-6.7h-4.7c-4.6,0-5.9-1.7-5.9-4.4V256.4Zm41.2-7-7.3,21.4c-2.6,7.5-5.1,15-7.4,22.4-2.4-7.4-4.8-14.8-7.4-22.3l-7.3-21.5H162l19.4,53.3c-.6,1.6-1.2,3.3-1.8,4.8-1.6,4.1-4.3,6.4-9.4,6.4h-4.7v6.7a39.9,39.9,0,0,0,4.8.3c8.2,0,13.5-2.7,16.8-11.8l21.8-59.7ZM36.4,492.6c14.6,0,28.9-8.9,30.7-27.5H58.7c-1.8,13.7-12.2,19.8-22.3,19.8-14.4,0-24.1-10.9-24.1-29.5s9.7-29.5,24.1-29.5c9.6,0,18.6,4.4,21.8,16.8h8.5c-3.6-17.2-16.3-24.5-30.3-24.5-19,0-32.9,14.1-32.9,37.2S17.4,492.6,36.4,492.6Zm82.5-54.4a19.01,19.01,0,0,0-15.8,8.3V419.8h-8V491h8V461.8c0-11.4,7.5-16.4,14.2-16.4,7.4,0,11.8,3.5,11.8,11.5V491h8V456.1C137.1,444.7,130.4,438.2,118.9,438.2ZM5.7,621.6h8.5v-9.8H5.7ZM6,681h8V629.4H6Zm98.4,1.2c11.6,0,20.5-7.1,22.2-18.9h-8.2c-1.4,7.9-7.4,11.7-14,11.7-8.6,0-15.5-6.3-15.5-19.8s6.7-19.8,15.5-19.8c6.5,0,12.5,3.7,13.9,11.5h8.3c-1.6-11.4-9.9-18.7-22.2-18.7-14.3,0-23.9,10.4-23.9,27S90.3,682.2,104.4,682.2Z" transform="translate(-1.989 -37.2)" fill="#0014ff" stroke="#fff" stroke-width="2" style="mix-blend-mode: multiply;isolation: isolate"/>
</svg>
