<svg xmlns="http://www.w3.org/2000/svg" width="135.6" height="76.4" viewBox="0 0 135.6 76.4">
  <g id="グループ_143" data-name="グループ 143" transform="translate(-258.29 -6295.199)">
    <g id="グループ_47" data-name="グループ 47" style="mix-blend-mode: multiply;isolation: isolate">
      <path id="パス_322" data-name="パス 322" d="M34.411,447.7c-14.4,0-24.1-10.9-24.1-29.5s9.7-29.5,24.1-29.5c9.6,0,18.6,4.4,21.8,16.8h8.5c-3.6-17.2-16.3-24.5-30.3-24.5-19,0-32.9,14.1-32.9,37.2s13.9,37.2,32.9,37.2c14.6,0,28.9-8.9,30.7-27.5h-8.4c-1.8,13.7-12.2,19.8-22.3,19.8" transform="translate(257.779 5915.199)" fill="#0f1bf9"/>
      <path id="パス_323" data-name="パス 323" d="M34.411,447.7c-14.4,0-24.1-10.9-24.1-29.5s9.7-29.5,24.1-29.5c9.6,0,18.6,4.4,21.8,16.8h8.5c-3.6-17.2-16.3-24.5-30.3-24.5-19,0-32.9,14.1-32.9,37.2s13.9,37.2,32.9,37.2c14.6,0,28.9-8.9,30.7-27.5h-8.4C54.911,441.6,44.511,447.7,34.411,447.7Z" transform="translate(257.779 5915.199)" fill="none" stroke="#fff" stroke-width="2"/>
    </g>
    <g id="グループ_48" data-name="グループ 48" style="mix-blend-mode: multiply;isolation: isolate">
      <path id="パス_324" data-name="パス 324" d="M116.911,401a19.01,19.01,0,0,0-15.8,8.3V382.6h-8v71.2h8V424.6c0-11.4,7.5-16.4,14.2-16.4,7.4,0,11.8,3.5,11.8,11.5v34.1h8V418.9c0-11.4-6.7-17.9-18.2-17.9" transform="translate(257.779 5915.199)" fill="#0f1bf9"/>
      <path id="パス_325" data-name="パス 325" d="M116.911,401a19.01,19.01,0,0,0-15.8,8.3V382.6h-8v71.2h8V424.6c0-11.4,7.5-16.4,14.2-16.4,7.4,0,11.8,3.5,11.8,11.5v34.1h8V418.9C135.111,407.5,128.411,401,116.911,401Z" transform="translate(257.779 5915.199)" fill="none" stroke="#fff" stroke-width="2"/>
    </g>
  </g>
</svg>
