<svg xmlns="http://www.w3.org/2000/svg" width="255.2" height="69.801" viewBox="0 0 255.2 69.801">
  <path id="パス_23" data-name="パス 23" d="M41.5,58.8q0,5.4-5.8,8.95T21,71.3a56.247,56.247,0,0,1-7.1-.5,33.26,33.26,0,0,0-3.7,14.3q0,8.9,7.9,8.9,6.1,0,11.9-6.4,1.3-1.4,1.7-1.4a.442.442,0,0,1,.5.5q0,2.3-4.7,5.7a18.887,18.887,0,0,1-11.2,3.9A15.34,15.34,0,0,1,5.6,92.5a12.388,12.388,0,0,1-4.2-9.6q0-11.2,12.2-21.7Q24.3,52,32.7,52,41.5,52,41.5,58.8Zm-7.1-1.7q0-3.1-3.1-3.1A10.229,10.229,0,0,0,25,56.4q-5.6,4.4-10.3,13.1,1.2.1,2.7.1a19.943,19.943,0,0,0,10.9-3.4Q34.4,62.4,34.4,57.1Zm50,2.8q0,2.4-2.6,8.3L73.7,86.5a14.027,14.027,0,0,0-1.4,4.3q0,2.1,2.3,2.1,2.8,0,8.2-4.6a1.71,1.71,0,0,1,.8-.3q.6,0,.6.5,0,1.2-3.3,3.5a16.621,16.621,0,0,1-9.6,3.1,8.931,8.931,0,0,1-5.1-1.35,4.032,4.032,0,0,1-2-3.45q0-1.7,1.9-6l8-17.9Q77,59.9,77,57.6q0-3.4-3.5-3.4-4.6,0-10.8,6.6-4.7,5-8.6,14l-8.2,19q-.5,1.5-1.3,1.5-.2,0-2.2-.2a4.581,4.581,0,0,0-1.2-.1q-.8,0-2.7.2a2.216,2.216,0,0,1-.7.1q-.7,0-.7-.5a1.214,1.214,0,0,1,.3-.6l.7-1.5L53.4,55.9q.3-.5.5-.9-.1-.7-2.5-.8-3-.1-3-1.1,0-.7,1.1-.7a18.612,18.612,0,0,1,2.2.2,18.785,18.785,0,0,0,2.3.2q5.4,0,7.1-.8a3.256,3.256,0,0,1,.9-.3.53.53,0,0,1,.6.6,1.113,1.113,0,0,1-.1.5l-3.7,9.4q.8-.9,2.3-2.5,7.4-7.8,14.3-7.8a9.346,9.346,0,0,1,6.5,2.25A7.39,7.39,0,0,1,84.4,59.9Zm44.3-1.1q0,5.4-5.8,8.95T108.2,71.3a56.247,56.247,0,0,1-7.1-.5,33.26,33.26,0,0,0-3.7,14.3q0,8.9,7.9,8.9,6.1,0,11.9-6.4,1.3-1.4,1.7-1.4a.442.442,0,0,1,.5.5q0,2.3-4.7,5.7a18.887,18.887,0,0,1-11.2,3.9,15.34,15.34,0,0,1-10.7-3.8,12.388,12.388,0,0,1-4.2-9.6q0-11.2,12.2-21.7Q111.5,52,119.9,52,128.7,52,128.7,58.8Zm-7.1-1.7q0-3.1-3.1-3.1a10.229,10.229,0,0,0-6.3,2.4q-5.6,4.4-10.3,13.1,1.2.1,2.7.1a19.943,19.943,0,0,0,10.9-3.4Q121.6,62.4,121.6,57.1Zm44.1-.5a5,5,0,0,1-1.3,3.45,3.931,3.931,0,0,1-3,1.45q-1.6,0-1.6-1.1l.2-1a3.5,3.5,0,0,0,.2-1.1,2.121,2.121,0,0,0-2.4-2.4q-2.9,0-8.1,5.6t-9.8,15.7L132.7,93q-1,2.3-1.7,2.3a22.409,22.409,0,0,0-3.1-.3,14.392,14.392,0,0,0-2.7.2h-.6q-.9,0-.9-.4,0-.1.3-.4l.5-1L141.4,55q0-.8-1.3-.8h-.4a5.957,5.957,0,0,1-1.3.1h-1q-1.5,0-1.5-.7,0-.6,5.2-.8a25.452,25.452,0,0,0,7-.9,8.282,8.282,0,0,1,.9-.2.53.53,0,0,1,.6.6,19.91,19.91,0,0,1-1.3,3.7l-3.7,9q9.2-12.8,16.2-12.8Q165.7,52.2,165.7,56.6Zm41.5-.8q0,3.2-3,3.2-2.8,0-2.8-2.7a2.376,2.376,0,0,1,.1-.65,9.012,9.012,0,0,0,.2-.95q0-.5-.6-.5-1,0-2.85,2.15T196.4,59.6a2.531,2.531,0,0,0,.4,1.2,15.322,15.322,0,0,1,1.2,6.1,16.757,16.757,0,0,1-4.75,12.05Q188.5,83.9,180.6,83.9a17.4,17.4,0,0,1-10.4-3.3q-7.7,2.7-7.7,6,0,2.1,3,2.6,5.6.9,6.3.7h8.3a39.252,39.252,0,0,1,8.2.6q7.4,1.8,7.4,10.8a19.012,19.012,0,0,1-5.7,13.8q-6.1,6.2-16.9,6.2a26.3,26.3,0,0,1-13.8-3.6q-7.3-4.4-7.3-10.3a8.128,8.128,0,0,1,3.7-6.8,40.716,40.716,0,0,1,7.5-3.4q-5.8-2.4-5.8-7,0-7.6,11.6-10.9a13.949,13.949,0,0,1-3.2-8.5,17.928,17.928,0,0,1,5.65-13.25A18.532,18.532,0,0,1,184.9,52q6,0,10.2,5.4,3.7-5.7,7.8-5.7Q207.2,51.7,207.2,55.8ZM191,60.7q0-7-5.8-7-4.8,0-8.6,8.4a32.539,32.539,0,0,0-3.3,13.5q0,6.5,6.4,6.5,4.7,0,8.1-7.7A33.756,33.756,0,0,0,191,60.7Zm1.8,44.3a7.1,7.1,0,0,0-5.6-6.9,52.481,52.481,0,0,0-10.5-.6l-11.3.2q-6.2,3.1-6.2,9.6a11.032,11.032,0,0,0,3.95,8.85q3.95,3.35,10.45,3.35a21.669,21.669,0,0,0,13.45-4.35Q192.8,110.8,192.8,105Zm63.8-49.8q0,3.5-3.4,3.5a2.425,2.425,0,0,1-2.3-1.9q-.2-.4-.5-.4-1,0-4.3,5.4L235.8,78.6q-.6,1.1-14.1,21.6A72.825,72.825,0,0,1,207.2,117q-4.4,3.6-8.7,3.6-4.5,0-4.5-3.3a3.631,3.631,0,0,1,1.2-2.8,4.271,4.271,0,0,1,3-1.1,2.3,2.3,0,0,1,1.65.4,5.058,5.058,0,0,1,.45,2.4q.1,1.5,1.4,1.5,1.8,0,5.55-3.2a49.1,49.1,0,0,0,7.05-7.5q5-6.5,5-11.3,0-1.4-.1-2.5V90.8L219,62q0-6.9-3-6.9-3.6,0-6.9,7.7-1.2,2.8-2,2.8t-.8-.9q0-2,3-6.5,4.5-6.7,10.6-6.7,4.5,0,5.7,3,.9,2.3.9,7.7v2.7l-.3,17.8q0,3.7.2,7.4l1.6-2.4q1-1.8,3.2-5.4l3.2-4.9L243,63.2a107.859,107.859,0,0,1,6.35-9.7,4.7,4.7,0,0,1,3.75-1.7Q256.6,51.8,256.6,55.2Z" transform="translate(-1.4 -51.5)" fill="#0014ff" style="mix-blend-mode: multiply;isolation: isolate"/>
</svg>
