<svg xmlns="http://www.w3.org/2000/svg" width="549.6" height="195.398" viewBox="0 0 549.6 195.398">
  <path id="パス_18" data-name="パス 18" d="M118.6,187.2q0,2-6.8,2.2,7.4-.2-7.8-.4l-15.2-.2-26.4.2a22.834,22.834,0,0,1-3.2.2q-3.4,0-3.4-2.4,0-1.8,2.2-1.8t4.4.2h2.2a24.171,24.171,0,0,0,9.6-1.8q2.8-1.2,4.2-11.2l4-27a5.2,5.2,0,0,0,.2-1.6q0-1.4-7.2-1.4H57.6q-9.4.2-10.2.2H44.2q-1.2,1.2-5.2,6L20.4,174q-3.8,5.2-3.8,7.2,0,4.2,11,4.2a31.83,31.83,0,0,0,3.6-.3,31.831,31.831,0,0,1,3.6-.3q2.8,0,2.8,2,0,2.2-5.4,2.2l-11-.2L3,189.2q-13,.2-16.4-.3t-3.4-2.3q0-1.6,2-1.6a28.355,28.355,0,0,1,4,.4,28.353,28.353,0,0,0,4,.4,22.885,22.885,0,0,0,11.4-2.6q3.2-1.8,13-14.8l57.8-76q5.2-6.8,15.8-20.2l17.6-22.8q2-2.6,3.4-2.6,2,0,2,2.8a52.663,52.663,0,0,1-1.4,11q-2.6,12-5.6,36.2L98.4,168q-1.2,9.8-1.2,10.8,0,5.8,7.2,6.2l11.8.6Q118.6,185.8,118.6,187.2ZM92,81.8q0-1.8-.8-1.8Q90,80,89,82.5a7.849,7.849,0,0,1-1.8,3.1Q86,87,80.8,94L59.4,122.8q-3.6,4.8-9.4,12.4a3.507,3.507,0,0,0-1.2,1.4q0,1.6,2.8,1.4l4-.2,10,.2q14.8.2,18-1.4l6.2-41q.6-4,1.8-11A16.853,16.853,0,0,0,92,81.8ZM294.6,80q0,19-17.6,31.9t-43.4,12.9a151.429,151.429,0,0,1-18.8-1.6L195.6,173q-1,2.6-3,8.2l-1.2,3a2.327,2.327,0,0,0-.4.6q0,1.4,2.6,1.4L209,186q2,.4,2,1.6,0,2-3.2,1.8l-5.2-.2-39.2-.4a60.1,60.1,0,0,0-7.2.3q-2.2.3-1.4.3-3,0-3-1.8,0-2,2.6-2a11.238,11.238,0,0,1,2.2.2l10.4.2a5.655,5.655,0,0,0,5.2-3.3,123.644,123.644,0,0,0,5.4-12.7L218.8,64.2q.8-2.2,4-10.4a15.84,15.84,0,0,0-2.6-.2,62.851,62.851,0,0,0-6.4.4q-3.8.4-4.8.4-4.8,0-4.8-2t4-2h1.6a27.44,27.44,0,0,0,3.4.2h2.4q3.4,0,7.2-.2l3.8-.2q28.2,0,41.2,2.4Q294.6,57.6,294.6,80Zm-20-2.8q0-12.2-6.3-17.6t-20.5-5.4a36.47,36.47,0,0,0-5.6.6l-25.6,64.4a87.663,87.663,0,0,0,15.4,2q16.8,0,29.7-13.4T274.6,77.2ZM348.2,49a14.183,14.183,0,0,1-1,2.8q-.6,1.6-2,4.8L300.4,166q-5,12.2-5,15.8,0,5.4,7.2,5.4t14.4-8.4q3-3.6,3.8-3.6a1.237,1.237,0,0,1,1.4,1.4q0,2.6-6.6,8.4-7.6,6.8-19.6,6.8-16.4,0-16.4-12.2,0-4,5-16.2L329.4,54.2a6.33,6.33,0,0,0,.6-1.4q0-1.8-3.8-1.8-8.8,0-8.8-1.6,0-1.2,1.8-1.2t5.5.2q3.7.2,5.5.2a74.6,74.6,0,0,0,12.8-.8,20.461,20.461,0,0,1,3-.4Q348.2,47.4,348.2,49Zm76.6,54.8a20.385,20.385,0,0,1-1.6,4.2l-26.4,60q-3.8,8.6-3.8,13.2,0,5.2,5.2,5.2,7.8,0,15.6-10.6,1.6-2.2,2.4-2.2a.707.707,0,0,1,.8.8q0,2.2-4.4,7-8.8,9.4-21,9.4a16.1,16.1,0,0,1-10.1-3,9.393,9.393,0,0,1-3.9-7.8,21.636,21.636,0,0,1,1.4-7q-12.6,18.6-29.2,18.6-10.4,0-17-6.7t-6.6-17.1q0-11.4,7.6-25A95.5,95.5,0,0,1,354,118q17.2-15.2,31.6-15.2,15,0,16.8,14.4l5-10.6q1.6-3.2,2.8-3.2a19.958,19.958,0,0,1,2.4.4,16.853,16.853,0,0,0,2.8.4,15.533,15.533,0,0,0,6.8-1.2,2.469,2.469,0,0,1,1.4-.6Q424.8,102.4,424.8,103.8Zm-25.2,17a13.724,13.724,0,0,0-3.7-10,12.681,12.681,0,0,0-9.5-3.8q-10,0-19.2,11.8a125.147,125.147,0,0,0-17,28.3q-6.4,14.9-6.4,26.1,0,13.6,11.2,13.6,6.4,0,13.9-7a56.966,56.966,0,0,0,12.5-17.6L397,128.6Q399.6,123,399.6,120.8Zm131.2-11.4q0,7-6.8,7-3.2,0-4.6-3.8-.4-.8-1-.8-2,0-8.6,10.8l-20.6,33.6q-1.2,2.2-28.2,43.2-14,21.4-29,33.6-8.8,7.2-17.4,7.2-9,0-9-6.6A7.263,7.263,0,0,1,408,228a8.542,8.542,0,0,1,6-2.2q2.6,0,3.3.8t.9,4.8q.2,3,2.8,3,3.6,0,11.1-6.4a98.2,98.2,0,0,0,14.1-15q10-13,10-22.6,0-2.8-.2-5v-4.8l-.4-57.6q0-13.8-6-13.8-7.2,0-13.8,15.4-2.4,5.6-4,5.6t-1.6-1.8q0-4,6-13,9-13.4,21.2-13.4,9,0,11.4,6,1.8,4.6,1.8,15.4v5.4l-.6,35.6q0,7.4.4,14.8l3.2-4.8q2-3.6,6.4-10.8l6.4-9.8,17.2-28.4q9.8-16,12.7-19.4a9.4,9.4,0,0,1,7.5-3.4Q530.8,102.6,530.8,109.4Z" transform="translate(17.8 -45.801)" fill="#0014ff" stroke="#fff" stroke-width="2" style="mix-blend-mode: multiply;isolation: isolate"/>
</svg>
