<svg xmlns="http://www.w3.org/2000/svg" width="267.7" height="43.72" viewBox="0 0 267.7 43.72">
  <path id="パス_13" data-name="パス 13" d="M40.2,15.66q0,1.14-1.98,7.2a9.174,9.174,0,0,0-.6,1.92q-.42,1.62-.84,1.62-.36,0-.36-.48a5.222,5.222,0,0,1,.18-1.38,12.42,12.42,0,0,0,.48-3.3q0-3.36-2.04-4.14a6.2,6.2,0,0,0-1.56-.36q-.9-.06-4.62-.12-.9,0-1.56-.06H24.78a1.071,1.071,0,0,0-.78.24,6.414,6.414,0,0,0-.78,1.56L16.32,35.1a6.414,6.414,0,0,0,1.26.12,25.457,25.457,0,0,0,5.1-.3q2.46-.72,4.5-5.04,1.2-2.52,1.62-2.52t.42.3a38.679,38.679,0,0,1-1.98,5.7q-.72,1.86-1.86,5.16-.18.42-.78,2.64-.84,3.24-1.44,3.24-.42,0-.42-.54a5.828,5.828,0,0,1,.36-1.74,10.51,10.51,0,0,0,.3-2.28q0-3.54-3.66-3.54a29.086,29.086,0,0,0-3.78.18L9.72,52.5a28.647,28.647,0,0,0-1.14,3.18q0,.48,1.02.48.48,0,4.68-.18.66,0,.66.54,0,.6-.9.6L9.24,57l-7.56.06L-1.5,57q-1.56.12-1.74.12-.66,0-.66-.48,0-.6.84-.6,1.08,0,1.74.06a3.052,3.052,0,0,0,.6.06q2.64,0,3.3-.66a20.148,20.148,0,0,0,1.56-3.42L16.68,20.4a27.545,27.545,0,0,0,1.26-3.48q0-.54-.72-.54l-3.6.06q-.9,0-.9-.66,0-.54.72-.54a6.851,6.851,0,0,1,.96.06l3.78.12,13.02.06q.78,0,2.94-.06a25.909,25.909,0,0,1,2.94-.06l1.8.06a5.539,5.539,0,0,0,.78-.06h.24A.265.265,0,0,1,40.2,15.66ZM60.3,31.92l-.12.3-.42.96L53.04,48.84Q51,53.58,51,54.72q0,1.62,1.56,1.62,2.22,0,4.92-3.12.66-.78.9-.78a.318.318,0,0,1,.36.36q0,1.44-3.54,3.6a8.294,8.294,0,0,1-4.32,1.26,5.065,5.065,0,0,1-3.06-.96,2.736,2.736,0,0,1-1.32-2.22,7.426,7.426,0,0,1,.54-2.22l.72-2.04a37.243,37.243,0,0,1-6.09,6A8.936,8.936,0,0,1,36.6,57.6a7.184,7.184,0,0,1-3.84-.93,2.778,2.778,0,0,1-1.5-2.43,12.256,12.256,0,0,1,1.32-4.56l6.18-13.86q.24-.54,1.02-2.1a1.044,1.044,0,0,0,.18-.42q0-.48-1.44-.48-1.92,0-1.92-.66a.371.371,0,0,1,.42-.42,11.271,11.271,0,0,1,1.38.12,11.271,11.271,0,0,0,1.38.12,14.616,14.616,0,0,0,4.62-.54,1.964,1.964,0,0,1,.48-.12q.3,0,.3.36a13.1,13.1,0,0,1-1.2,3.03q-1.2,2.55-2.22,5.25-.24.66-1.86,4.38l-2.4,5.52A14.545,14.545,0,0,0,36,54.72q0,1.74,2.22,1.74,2.34,0,6.06-3.84A34.6,34.6,0,0,0,51.24,41.7l3.84-9.12q.3-.72.66-.72-.06,0,1.26.12h.48a7.5,7.5,0,0,0,2.1-.18,1.376,1.376,0,0,1,.42-.12Q60.3,31.68,60.3,31.92Zm49.56,4.02a15.051,15.051,0,0,1-1.56,4.98L103.44,51.9a8.416,8.416,0,0,0-.84,2.58q0,1.26,1.38,1.26,1.68,0,4.92-2.76a1.026,1.026,0,0,1,.48-.18q.36,0,.36.3,0,.72-1.98,2.1A9.972,9.972,0,0,1,102,57.06a5.359,5.359,0,0,1-3.06-.81,2.419,2.419,0,0,1-1.2-2.07,10.983,10.983,0,0,1,1.14-3.6l4.8-10.74q1.74-3.9,1.74-5.28a1.83,1.83,0,0,0-2.1-2.04q-2.76,0-6.48,3.96a29.152,29.152,0,0,0-5.16,8.4l-4.92,11.4q-.3.9-.78.9-.12,0-1.32-.12a2.748,2.748,0,0,0-.72-.06q-.48,0-1.62.12a1.33,1.33,0,0,1-.42.06q-.42,0-.42-.3a.728.728,0,0,1,.18-.36l.42-.9,9.18-22.08q.18-.3.3-.54-.06-.42-1.5-.48-1.8-.06-1.8-.66,0-.42.66-.42a11.168,11.168,0,0,1,1.32.12,11.271,11.271,0,0,0,1.38.12,11.97,11.97,0,0,0,4.26-.48,1.954,1.954,0,0,1,.54-.18.318.318,0,0,1,.36.36.668.668,0,0,1-.06.3L94.5,37.32q.48-.54,1.38-1.5,4.44-4.68,8.58-4.68a5.608,5.608,0,0,1,3.9,1.35A4.434,4.434,0,0,1,109.86,35.94Zm25.74-.3q0,2.94-2.46,2.94a2.115,2.115,0,0,1-1.5-.63,1.911,1.911,0,0,1-.66-1.41q0-1.44,1.62-1.44l.48.06a3.767,3.767,0,0,0,.72.24q.48,0,.48-.66a2.092,2.092,0,0,0-1.17-1.71,4.735,4.735,0,0,0-2.61-.75q-4.44,0-8.58,6.6-4.26,6.78-4.26,12.66,0,5.04,4.56,5.04,3.42,0,6.9-4.14.6-.72.96-.72.3,0,.3.36,0,.72-1.56,2.28a10.617,10.617,0,0,1-7.68,3.42,8.731,8.731,0,0,1-6.27-2.25,7.848,7.848,0,0,1-2.37-5.97q0-6.3,6.72-12.9,5.52-5.46,11.4-5.46a5.208,5.208,0,0,1,3.6,1.23A4.1,4.1,0,0,1,135.6,35.64Zm28.74-3.78q0,.84-2.52.9l-2.28.06h-1.08L150.36,51a13.542,13.542,0,0,0-1.32,3.72q0,1.26,1.86,1.26,2.7,0,4.8-2.88.48-.6.72-.6.48,0,.48.42,0,.78-1.98,2.52a8.048,8.048,0,0,1-5.46,1.98,5.447,5.447,0,0,1-3.51-1.08,3.381,3.381,0,0,1-1.35-2.76,12.111,12.111,0,0,1,1.38-4.02l7.86-16.86h-2.46q-1.02,0-1.02-.42,0-.78.84-.78h.54a5.437,5.437,0,0,0,.96.06q.84,0,1.62-.06l1.02-2.58q.54-1.32.84-1.32a5.545,5.545,0,0,1,.93.12,5.635,5.635,0,0,0,.99.12,5.012,5.012,0,0,0,1.92-.6.967.967,0,0,1,.42-.12q.3,0,.3.24l-.66,1.44-1.32,2.88,1.44-.06,2.28-.12a5.206,5.206,0,0,0,.72-.06q.42-.06.48-.06Q164.34,31.38,164.34,31.86Zm48-11.52q0,2.52-2.34,2.52a2.741,2.741,0,0,1-1.98-.75,2.511,2.511,0,0,1-.78-1.89q0-2.46,2.76-2.46Q212.34,17.76,212.34,20.34ZM208.2,31.56a2.037,2.037,0,0,1-.3.72q-.42.72-1.38,2.94L199.62,51a15.406,15.406,0,0,0-1.38,3.96q0,1.62,1.68,1.62a5.555,5.555,0,0,0,2.61-.81,6.392,6.392,0,0,0,2.25-1.95q.54-.72.84-.72a.318.318,0,0,1,.36.36q0,.72-1.68,2.16a8.524,8.524,0,0,1-5.7,2.16,5.35,5.35,0,0,1-3.45-1.08,3.381,3.381,0,0,1-1.35-2.76,14.045,14.045,0,0,1,1.5-4.86l6.24-13.92a4.74,4.74,0,0,1,.72-1.56.741.741,0,0,0,.18-.42q0-.54-2.64-.72-.48-.12-.48-.42,0-.54.48-.54.06,0,.9.12a21.356,21.356,0,0,0,2.7.12,10.345,10.345,0,0,0,3.54-.42,2.751,2.751,0,0,1,.84-.24Q208.2,31.08,208.2,31.56Zm25.56,9.3q0,7.02-6.42,12.66-5.04,4.44-10.5,4.44a7.991,7.991,0,0,1-6.12-2.58,9.389,9.389,0,0,1-2.4-6.66,14.959,14.959,0,0,1,1.98-7.14,19.8,19.8,0,0,1,5.28-6.24q5.16-4.02,9.96-4.02a7.477,7.477,0,0,1,5.94,2.64A10.182,10.182,0,0,1,233.76,40.86Zm-4.62-3.9q0-4.56-4.08-4.56-4.98,0-8.64,7.14a28.467,28.467,0,0,0-3.48,12.84q0,4.5,4.02,4.5,5.04,0,8.4-6.48Q229.14,43.08,229.14,36.96Zm33.66-1.02a15.051,15.051,0,0,1-1.56,4.98L256.38,51.9a8.416,8.416,0,0,0-.84,2.58q0,1.26,1.38,1.26,1.68,0,4.92-2.76a1.026,1.026,0,0,1,.48-.18q.36,0,.36.3,0,.72-1.98,2.1a9.972,9.972,0,0,1-5.76,1.86,5.359,5.359,0,0,1-3.06-.81,2.419,2.419,0,0,1-1.2-2.07,10.983,10.983,0,0,1,1.14-3.6l4.8-10.74q1.74-3.9,1.74-5.28a1.83,1.83,0,0,0-2.1-2.04q-2.76,0-6.48,3.96a29.152,29.152,0,0,0-5.16,8.4l-4.92,11.4q-.3.9-.78.9-.12,0-1.32-.12a2.748,2.748,0,0,0-.72-.06q-.48,0-1.62.12a1.33,1.33,0,0,1-.42.06q-.42,0-.42-.3a.729.729,0,0,1,.18-.36l.42-.9,9.18-22.08q.18-.3.3-.54-.06-.42-1.5-.48-1.8-.06-1.8-.66,0-.42.66-.42a11.167,11.167,0,0,1,1.32.12,11.271,11.271,0,0,0,1.38.12,11.97,11.97,0,0,0,4.26-.48,1.954,1.954,0,0,1,.54-.18.318.318,0,0,1,.36.36.668.668,0,0,1-.06.3l-2.22,5.64q.48-.54,1.38-1.5,4.44-4.68,8.58-4.68a5.608,5.608,0,0,1,3.9,1.35A4.434,4.434,0,0,1,262.8,35.94Z" transform="translate(4.4 -14.74)" fill="#0014ff" stroke="#fff" stroke-width="1" style="mix-blend-mode: multiply;isolation: isolate"/>
</svg>
