<svg xmlns="http://www.w3.org/2000/svg" width="146.4" height="976" viewBox="0 0 146.4 976">
  <path id="パス_14" data-name="パス 14" d="M211.8,52q0,1.6-6.4,2-7.4.4-10.3,2.2T187,65.4q-2,2.8-6.2,8.8L102.6,181.6q-6.2,8.4-8,8.4-1.4,0-1.4-1.6a18.726,18.726,0,0,1,.2-3v-2.8L95,117.8,45.8,182.2q-6.4,8.4-8.2,8.4-1.2,0-1.2-1.6l.2-6.4L40.6,59q0-3.6-3.8-4.4-1-.4-6.8-.6-4.6-.2-4.6-1.4,0-2,3-2h2q.6,0,9,.4,7.4.4,14.2.2l20.6-.4a29.239,29.239,0,0,1,3.6-.2q1.6,0,1.6,1a1.617,1.617,0,0,1-1.5,1.7q-1.5.3-8.9,1.1-9.6,1-9.8,4.6l-.4,9L55,162.2l39.6-51.8.6-50q0-4-1.9-5.3t-7.5-1.3H83.6q-2,0-2-1.2,0-2,3.2-2H86q3.2,0,10.1.2t7.5.2l41,.4q3.8,0,13.2-.8H160q3,0,3,1.4,0,1.6-4.8,1.8-9.6.6-13.4,2.7t-9.2,9.7L113.4,96.8l-1.8,64.8L176.2,72q10-13.8,10-15.2,0-3-4.8-3a8.225,8.225,0,0,1-1.3.2,39.391,39.391,0,0,1-4.7.2h-.8q-3.6,0-3.6-1.6,0-2,3.8-1.8l3.6.2h16.4l14.4.2a2.786,2.786,0,0,1,1.2-.2Q211.8,51,211.8,52Zm-75.4,4.8q0-2.8-10-2.8-13.2,0-13.2,5.6v1.8a14.575,14.575,0,0,1,.2,2.4v2.8l-.6,23.2,19-26.6q1-1.4,3.4-4.6Q136.4,57.4,136.4,56.8Zm119.8,59.8q0,10.8-11.6,17.9t-29.4,7.1a112.493,112.493,0,0,1-14.2-1q-7.4,15.4-7.4,28.6,0,17.8,15.8,17.8,12.2,0,23.8-12.8,2.6-2.8,3.4-2.8a.884.884,0,0,1,1,1q0,4.6-9.4,11.4-10.8,7.8-22.4,7.8-13,0-21.4-7.6a24.777,24.777,0,0,1-8.4-19.2q0-22.4,24.4-43.4Q221.8,103,238.6,103,256.2,103,256.2,116.6ZM242,113.2q0-6.2-6.2-6.2-6.4,0-12.6,4.8Q212,120.6,202.6,138q2.4.2,5.4.2a39.886,39.886,0,0,0,21.8-6.8Q242,123.8,242,113.2ZM358.6,49a14.182,14.182,0,0,1-1,2.8q-.6,1.6-2,4.8L310.8,166q-5,12.2-5,15.8,0,5.4,7.2,5.4t14.4-8.4q3-3.6,3.8-3.6a1.237,1.237,0,0,1,1.4,1.4q0,2.6-6.6,8.4-7.6,6.8-19.6,6.8-16.4,0-16.4-12.2,0-4,5-16.2L339.8,54.2a6.33,6.33,0,0,0,.6-1.4q0-1.8-3.8-1.8-8.8,0-8.8-1.6,0-1.2,1.8-1.2t5.5.2q3.7.2,5.5.2a74.6,74.6,0,0,0,12.8-.8,20.46,20.46,0,0,1,3-.4Q358.6,47.4,358.6,49Zm123,0a14.182,14.182,0,0,1-1,2.8q-.6,1.6-2,4.8L433.8,166q-5,12.2-5,15.8,0,5.4,7.2,5.4t14.4-8.4q3-3.6,3.8-3.6a1.237,1.237,0,0,1,1.4,1.4q0,2.6-6.6,8.4-7.6,6.8-19.6,6.8-16.4,0-16.4-12.2,0-4,5-16.2L462.8,54.2a6.33,6.33,0,0,0,.6-1.4q0-1.8-3.8-1.8-8.8,0-8.8-1.6,0-1.2,1.8-1.2t5.5.2q3.7.2,5.5.2a74.6,74.6,0,0,0,12.8-.8,20.46,20.46,0,0,1,3-.4Q481.6,47.4,481.6,49ZM588,118.8q0,4.8-5.2,16.6L566.6,172q-2.8,6.4-2.8,8.6,0,4.2,4.6,4.2,5.6,0,16.4-9.2a3.419,3.419,0,0,1,1.6-.6q1.2,0,1.2,1,0,2.4-6.6,7a33.242,33.242,0,0,1-19.2,6.2,17.862,17.862,0,0,1-10.2-2.7q-4-2.7-4-6.9,0-3.4,3.8-12l16-35.8q5.8-13,5.8-17.6,0-6.8-7-6.8-9.2,0-21.6,13.2-9.4,10-17.2,28l-16.4,38q-1,3-2.6,3-.4,0-4.4-.4a9.161,9.161,0,0,0-2.4-.2q-1.6,0-5.4.4a4.432,4.432,0,0,1-1.4.2q-1.4,0-1.4-1a2.428,2.428,0,0,1,.6-1.2l1.4-3L526,110.8q.6-1,1-1.8-.2-1.4-5-1.6-6-.2-6-2.2,0-1.4,2.2-1.4a37.225,37.225,0,0,1,4.4.4,37.57,37.57,0,0,0,4.6.4q10.8,0,14.2-1.6a6.512,6.512,0,0,1,1.8-.6,1.061,1.061,0,0,1,1.2,1.2,2.226,2.226,0,0,1-.2,1l-7.4,18.8q1.6-1.8,4.6-5,14.8-15.6,28.6-15.6,8,0,13,4.5A14.781,14.781,0,0,1,588,118.8Zm88.6-2.2q0,10.8-11.6,17.9t-29.4,7.1a112.494,112.494,0,0,1-14.2-1Q614,156,614,169.2q0,17.8,15.8,17.8,12.2,0,23.8-12.8,2.6-2.8,3.4-2.8a.884.884,0,0,1,1,1q0,4.6-9.4,11.4-10.8,7.8-22.4,7.8-13,0-21.4-7.6a24.777,24.777,0,0,1-8.4-19.2q0-22.4,24.4-43.4Q642.2,103,659,103,676.6,103,676.6,116.6Zm-14.2-3.4q0-6.2-6.2-6.2-6.4,0-12.6,4.8Q632.4,120.6,623,138q2.4.2,5.4.2a39.886,39.886,0,0,0,21.8-6.8Q662.4,123.8,662.4,113.2Zm83.2,5a8.278,8.278,0,0,1-2.2,5.8,6.833,6.833,0,0,1-5.2,2.4q-6,0-6-5.8,0-4.8,4-4.8a5.293,5.293,0,0,1,1.9.6,5.365,5.365,0,0,0,2.1.6q1.2,0,1.2-1.4,0-3.4-4.6-6.6a16.3,16.3,0,0,0-9.4-3.2,15.251,15.251,0,0,0-10.8,4.1,13.044,13.044,0,0,0-4.4,9.9q0,5,9.4,27.8a32.089,32.089,0,0,1,2.2,12.2,30.963,30.963,0,0,1-9.2,22.8q-9.2,9.2-23,9.2-12,0-20.1-6.7t-8.1-16.5a13.086,13.086,0,0,1,3.3-9.2,10.782,10.782,0,0,1,8.3-3.6,9.035,9.035,0,0,1,6.5,2.6,8.312,8.312,0,0,1,2.7,6.2q0,6-5.8,6-6.2,0-6.2-4.2a8.278,8.278,0,0,1,.5-2.8,10.043,10.043,0,0,0,.5-1.6q0-2-1.6-2-1.8,0-3.3,2.7a11.947,11.947,0,0,0-1.5,5.9q0,7.8,6.5,13.6a22.237,22.237,0,0,0,15.3,5.8,19.6,19.6,0,0,0,13.7-5,16.3,16.3,0,0,0,5.5-12.6q0-5.4-4.2-17.6-4-11.6-4-19.2,0-13,7.9-21.9a24.845,24.845,0,0,1,19.3-8.9,20.154,20.154,0,0,1,13.2,4.6Q745.6,112,745.6,118.2ZM999.4,49.6q0,1.8-3.7,8.8T989,80q-.8,3.4-2.6,3.4A1.237,1.237,0,0,1,985,82V80.8a53.091,53.091,0,0,0,.6-7.4q0-9.8-6.5-15.6T961.6,52q-12.2,0-20.5,7.2A22.645,22.645,0,0,0,932.8,77q0,11.2,14.2,25.4l12,12q16,16,16,32.2,0,18.6-14.3,31.8T926,191.6q-11.8,0-19.8-4.4-1-.6-8.8-6.4a7.453,7.453,0,0,0-4.4-1.6q-4.6,0-7.6,9.8-.8,2.8-2.2,2.8-1.8,0-1.8-2,0-.2,1.8-4.6,6.6-16.2,11.8-31.8,1.6-4.8,4-4.8a1.237,1.237,0,0,1,1.4,1.4,11.14,11.14,0,0,1-.8,2.4q-1.4,2.2-1.4,10,0,25.2,28,25.2,14.2,0,23.1-8.2t8.9-21.4q0-15.2-13.8-28l-11.2-10.4q-17-15.8-17-31.2,0-16.2,13.2-28a45.535,45.535,0,0,1,31.4-11.8,51.3,51.3,0,0,1,20,4.2q6.2,2.6,8,2.6,3.8,0,7.2-5.2,1.2-2,2.2-2Q999.4,48.2,999.4,49.6Z" transform="translate(192.8 -24.4) rotate(90)" fill="#0014ff" stroke="#fff" stroke-width="2" style="mix-blend-mode: multiply;isolation: isolate"/>
</svg>
