<svg xmlns="http://www.w3.org/2000/svg" width="81.203" height="21.719" viewBox="0 0 81.203 21.719">
  <path id="パス_15" data-name="パス 15" d="M28.44,11.64,23.31,22.17c-1.17,2.43-2.46,5.13-3.63,7.68-.09-2.49-.24-5.25-.42-7.74l-.69-10.47H15.75L10.62,22.11c-1.23,2.52-2.49,5.19-3.69,7.77-.12-3.87-.21-5.1-.36-7.71L5.88,11.64H3.33L4.86,33H7.68l5.37-10.89c1.14-2.31,2.4-4.86,3.51-7.29.12,2.4.24,4.98.39,7.29L17.7,33h2.82L31.11,11.64Zm5.55,21.72c4.17,0,7.74-3.15,8.67-7.59,1.14-5.46-1.38-8.61-6.09-8.61a9.13,9.13,0,0,0-8.67,7.56C26.73,30.21,29.25,33.36,33.99,33.36Zm.06-2.16c-2.94,0-4.56-2.13-3.69-6.24.69-3.21,3.15-5.64,6.15-5.64,3.03,0,4.53,2.19,3.69,6.18C39.45,29.01,37.02,31.2,34.05,31.2ZM54.6,17.28a7.3,7.3,0,0,0-5.55,2.64l.51-2.4H47.28L43.98,33h2.4l1.89-8.82c.63-3,2.94-4.56,6.03-4.56h.6l.48-2.31A7.32,7.32,0,0,0,54.6,17.28Zm14.82-5.64-1.74,8.13a5.01,5.01,0,0,0-4.77-2.61c-4.41,0-7.56,3.15-8.52,7.68-1.08,5.16,1.32,8.52,5.82,8.52a7.49,7.49,0,0,0,5.16-2.1L64.98,33h2.28l4.56-21.36ZM60.57,31.2c-3,0-4.53-2.07-3.69-6.15.72-3.48,2.97-5.79,5.94-5.79,3.21,0,4.8,2.22,3.93,6.24C65.97,29.16,63.75,31.2,60.57,31.2Zm16.29,2.16c4.05,0,6-1.71,6.45-3.87.63-3.09-.66-4.53-4.23-5.25L77.88,24c-2.07-.42-3-1.08-2.7-2.61.27-1.32,1.65-2.16,3.72-2.16,2.34,0,3.54.72,3.21,3.06h2.37c.39-3.33-1.38-5.13-5.34-5.13-3.33,0-5.73,1.38-6.27,3.87-.63,2.85.9,4.47,4.02,5.07l1.11.21c2.58.48,3.3,1.2,2.94,2.85-.27,1.26-1.44,2.13-3.87,2.13-2.76,0-3.9-.87-3.72-3.21h-2.4C70.56,31.71,72.6,33.36,76.86,33.36Z" transform="translate(-3.33 -11.641)" fill="#0014ff" style="mix-blend-mode: multiply;isolation: isolate"/>
</svg>
