<svg xmlns="http://www.w3.org/2000/svg" xmlns:xlink="http://www.w3.org/1999/xlink" width="418.28" height="112.775" viewBox="0 0 418.28 112.775">
  <defs>
    <clipPath id="clip-path">
      <rect id="長方形_20" data-name="長方形 20" width="418.28" height="112.775" fill="#fff"/>
    </clipPath>
    <clipPath id="clip-path-2">
      <rect id="長方形_20-2" data-name="長方形 20" width="418.28" height="112.775" fill="#0014ff"/>
    </clipPath>
  </defs>
  <g id="グループ_8" data-name="グループ 8" transform="translate(-107.829 -471.692)">
    <g id="グループ_3" data-name="グループ 3" transform="translate(107.829 471.692)" opacity="0.637" style="isolation: isolate">
      <g id="グループ_2" data-name="グループ 2" clip-path="url(#clip-path)">
        <path id="パス_1" data-name="パス 1" d="M71.287,101.155h4.544c-5.688,10.513-18.043,16.119-32.6,16.119C16.959,117.273,0,99.289,0,76.774,0,52.235,18.355,36.547,41.278,36.547c21.394,0,37.145,14.763,37.99,37.882H13.938v1.094c0,24.1,13.359,37.738,31.565,37.738,10.955,0,20.386-4.167,25.784-12.105M14.1,70.592H65.658c-.7-19.623-9.927-30.535-24.974-30.535-13.862,0-25.336,11.285-26.588,30.535" transform="translate(0 -4.498)" fill="#fff"/>
        <path id="パス_2" data-name="パス 2" d="M236.493,62.422v51.762H223.424V59.074c0-9.894-6.8-17.356-16.236-17.356s-17.69,7.308-21.5,17.2a26.736,26.736,0,0,1,.153,3.5v51.762H172.776V59.074c0-9.894-6.559-17.356-16-17.356-9.286,0-16.952,6.7-21.062,16.135v56.331H122.649v-74.9L135.716,37.3V51.538a27.7,27.7,0,0,1,25.173-15c12.178,0,20.247,6.626,23.445,17.282C188.748,43.317,199.118,36.54,211.3,36.54c14.918,0,25.194,11.114,25.194,25.882" transform="translate(-15.095 -4.497)" fill="#fff"/>
        <path id="パス_3" data-name="パス 3" d="M403.933,62.422v51.762H390.864V59.074c0-9.894-6.8-17.356-16.235-17.356s-17.69,7.308-21.5,17.2a26.725,26.725,0,0,1,.154,3.5v51.762H340.216V59.074c0-9.894-6.558-17.356-16-17.356-9.286,0-16.952,6.7-21.062,16.135v56.331H290.089v-74.9L303.156,37.3V51.538a27.7,27.7,0,0,1,25.173-15c12.178,0,20.247,6.626,23.445,17.282,4.414-10.506,14.784-17.282,26.965-17.282,14.918,0,25.194,11.114,25.194,25.882" transform="translate(-35.702 -4.497)" fill="#fff"/>
        <path id="パス_4" data-name="パス 4" d="M457.805,8.335c0-4.85,3.636-8.335,8.636-8.335a8,8,0,0,1,8.183,8.335,8.089,8.089,0,0,1-8.183,8.333,8.288,8.288,0,0,1-8.636-8.333" transform="translate(-56.343)" fill="#fff"/>
        <path id="パス_5" data-name="パス 5" d="M460.282,39.388l13.066-1.978v76.882H460.282Z" transform="translate(-56.648 -4.604)" fill="#fff"/>
      </g>
    </g>
    <g id="グループ_4" data-name="グループ 4" transform="translate(107.829 471.692)" style="mix-blend-mode: multiply;isolation: isolate">
      <g id="グループ_2-2" data-name="グループ 2" clip-path="url(#clip-path-2)">
        <path id="パス_1-2" data-name="パス 1" d="M71.287,101.155h4.544c-5.688,10.513-18.043,16.119-32.6,16.119C16.959,117.273,0,99.289,0,76.774,0,52.235,18.355,36.547,41.278,36.547c21.394,0,37.145,14.763,37.99,37.882H13.938v1.094c0,24.1,13.359,37.738,31.565,37.738,10.955,0,20.386-4.167,25.784-12.105M14.1,70.592H65.658c-.7-19.623-9.927-30.535-24.974-30.535-13.862,0-25.336,11.285-26.588,30.535" transform="translate(0 -4.498)" fill="#0014ff"/>
        <path id="パス_2-2" data-name="パス 2" d="M236.493,62.422v51.762H223.424V59.074c0-9.894-6.8-17.356-16.236-17.356s-17.69,7.308-21.5,17.2a26.736,26.736,0,0,1,.153,3.5v51.762H172.776V59.074c0-9.894-6.559-17.356-16-17.356-9.286,0-16.952,6.7-21.062,16.135v56.331H122.649v-74.9L135.716,37.3V51.538a27.7,27.7,0,0,1,25.173-15c12.178,0,20.247,6.626,23.445,17.282C188.748,43.317,199.118,36.54,211.3,36.54c14.918,0,25.194,11.114,25.194,25.882" transform="translate(-15.095 -4.497)" fill="#0014ff"/>
        <path id="パス_3-2" data-name="パス 3" d="M403.933,62.422v51.762H390.864V59.074c0-9.894-6.8-17.356-16.235-17.356s-17.69,7.308-21.5,17.2a26.725,26.725,0,0,1,.154,3.5v51.762H340.216V59.074c0-9.894-6.558-17.356-16-17.356-9.286,0-16.952,6.7-21.062,16.135v56.331H290.089v-74.9L303.156,37.3V51.538a27.7,27.7,0,0,1,25.173-15c12.178,0,20.247,6.626,23.445,17.282,4.414-10.506,14.784-17.282,26.965-17.282,14.918,0,25.194,11.114,25.194,25.882" transform="translate(-35.702 -4.497)" fill="#0014ff"/>
        <path id="パス_4-2" data-name="パス 4" d="M457.805,8.335c0-4.85,3.636-8.335,8.636-8.335a8,8,0,0,1,8.183,8.335,8.089,8.089,0,0,1-8.183,8.333,8.288,8.288,0,0,1-8.636-8.333" transform="translate(-56.343)" fill="#0014ff"/>
        <path id="パス_5-2" data-name="パス 5" d="M460.282,39.388l13.066-1.978v76.882H460.282Z" transform="translate(-56.648 -4.604)" fill="#0014ff"/>
      </g>
    </g>
  </g>
</svg>
