<svg xmlns="http://www.w3.org/2000/svg" width="123.054" height="72.4" viewBox="0 0 123.054 72.4">
  <g id="グループ_144" data-name="グループ 144" transform="translate(-260.49 -6488.799)">
    <g id="グループ_49" data-name="グループ 49" style="mix-blend-mode: multiply;isolation: isolate">
      <rect id="長方形_57" data-name="長方形 57" width="8.5" height="9.8" transform="translate(261.49 6489.799)" fill="#0f1bf9"/>
      <rect id="長方形_58" data-name="長方形 58" width="8.5" height="9.8" transform="translate(261.49 6489.799)" fill="none" stroke="#fff" stroke-width="2"/>
      <rect id="長方形_59" data-name="長方形 59" width="8" height="51.6" transform="translate(261.79 6507.399)" fill="#0f1bf9"/>
      <rect id="長方形_60" data-name="長方形 60" width="8" height="51.6" transform="translate(261.79 6507.399)" fill="none" stroke="#fff" stroke-width="2"/>
    </g>
    <g id="グループ_50" data-name="グループ 50" style="mix-blend-mode: multiply;isolation: isolate">
      <path id="パス_326" data-name="パス 326" d="M102.411,598.2c6.5,0,12.5,3.7,13.9,11.5h8.3c-1.6-11.4-9.9-18.7-22.2-18.7-14.3,0-23.9,10.4-23.9,27s9.8,27,23.9,27c11.6,0,20.5-7.1,22.2-18.9h-8.2c-1.4,7.9-7.4,11.7-14,11.7-8.6,0-15.5-6.3-15.5-19.8s6.7-19.8,15.5-19.8" transform="translate(257.779 5915.199)" fill="#0f1bf9"/>
      <path id="パス_327" data-name="パス 327" d="M102.411,598.2c6.5,0,12.5,3.7,13.9,11.5h8.3c-1.6-11.4-9.9-18.7-22.2-18.7-14.3,0-23.9,10.4-23.9,27s9.8,27,23.9,27c11.6,0,20.5-7.1,22.2-18.9h-8.2c-1.4,7.9-7.4,11.7-14,11.7-8.6,0-15.5-6.3-15.5-19.8S93.611,598.2,102.411,598.2Z" transform="translate(257.779 5915.199)" fill="none" stroke="#fff" stroke-width="2"/>
    </g>
  </g>
</svg>
