<svg xmlns="http://www.w3.org/2000/svg" width="514" height="156.24" viewBox="0 0 514 156.24">
  <path id="パス_6" data-name="パス 6" d="M107.2,41.76q0,3.04-5.28,19.2a24.465,24.465,0,0,0-1.6,5.12Q99.2,70.4,98.08,70.4q-.96,0-.96-1.28a13.925,13.925,0,0,1,.48-3.68,33.121,33.121,0,0,0,1.28-8.8q0-8.96-5.44-11.04a16.543,16.543,0,0,0-4.16-.96q-2.4-.16-12.32-.32-2.4,0-4.16-.16H66.08A2.856,2.856,0,0,0,64,44.8a17.1,17.1,0,0,0-2.08,4.16L43.52,93.6a17.1,17.1,0,0,0,3.36.32q10.72,0,13.6-.8,6.56-1.92,12-13.44,3.2-6.72,4.32-6.72t1.12.8q0,1.6-5.28,15.2-1.92,4.96-4.96,13.76-.48,1.12-2.08,7.04-2.24,8.64-3.84,8.64-1.12,0-1.12-1.44a15.541,15.541,0,0,1,.96-4.64,28.028,28.028,0,0,0,.8-6.08q0-9.44-9.76-9.44a77.562,77.562,0,0,0-10.08.48L25.92,140a76.394,76.394,0,0,0-3.04,8.48q0,1.28,2.72,1.28,1.28,0,12.48-.48,1.76,0,1.76,1.44,0,1.6-2.4,1.6L24.64,152l-20.16.16L-4,152q-4.16.32-4.64.32-1.76,0-1.76-1.28,0-1.6,2.24-1.6,2.88,0,4.64.16a8.141,8.141,0,0,0,1.6.16q7.04,0,8.8-1.76.8-.8,4.16-9.12L44.48,54.4q3.36-8.48,3.36-9.28,0-1.44-1.92-1.44l-9.6.16q-2.4,0-2.4-1.76,0-1.44,1.92-1.44a18.267,18.267,0,0,1,2.56.16l10.08.32,34.72.16q2.08,0,7.84-.16a69.093,69.093,0,0,1,7.84-.16l4.8.16a14.771,14.771,0,0,0,2.08-.16h.64A.707.707,0,0,1,107.2,41.76Zm68.48,48.8a7.991,7.991,0,0,1-2.08,5.52,6.29,6.29,0,0,1-4.8,2.32q-2.56,0-2.56-1.76l.32-1.6a5.606,5.606,0,0,0,.32-1.76q0-3.84-3.84-3.84-4.64,0-12.96,8.96T134.4,123.52L122.88,148.8q-1.6,3.68-2.72,3.68a35.857,35.857,0,0,0-4.96-.48,23.027,23.027,0,0,0-4.32.32h-.96q-1.44,0-1.44-.64,0-.16.48-.64l.8-1.6L136.8,88q0-1.28-2.08-1.28h-.64a9.532,9.532,0,0,1-2.08.16h-1.6q-2.4,0-2.4-1.12,0-.96,8.32-1.28t11.2-1.44a13.252,13.252,0,0,1,1.44-.32.849.849,0,0,1,.96.96q0,.8-2.08,5.92L141.92,104q14.72-20.48,25.92-20.48Q175.68,83.52,175.68,90.56Zm55.52,3.52q0,8.64-9.28,14.32t-23.52,5.68a90,90,0,0,1-11.36-.8q-5.92,12.32-5.92,22.88,0,14.24,12.64,14.24,9.76,0,19.04-10.24,2.08-2.24,2.72-2.24a.707.707,0,0,1,.8.8q0,3.68-7.52,9.12-8.64,6.24-17.92,6.24-10.4,0-17.12-6.08a19.821,19.821,0,0,1-6.72-15.36q0-17.92,19.52-34.72Q203.68,83.2,217.12,83.2,231.2,83.2,231.2,94.08Zm-11.36-2.72q0-4.96-4.96-4.96a16.366,16.366,0,0,0-10.08,3.84q-8.96,7.04-16.48,20.96,1.92.16,4.32.16a31.909,31.909,0,0,0,17.44-5.44Q219.84,99.84,219.84,91.36ZM292,94.08q0,8.64-9.28,14.32t-23.52,5.68a90,90,0,0,1-11.36-.8q-5.92,12.32-5.92,22.88,0,14.24,12.64,14.24,9.76,0,19.04-10.24,2.08-2.24,2.72-2.24a.707.707,0,0,1,.8.8q0,3.68-7.52,9.12-8.64,6.24-17.92,6.24-10.4,0-17.12-6.08a19.821,19.821,0,0,1-6.72-15.36q0-17.92,19.52-34.72Q264.48,83.2,277.92,83.2,292,83.2,292,94.08Zm-11.36-2.72q0-4.96-4.96-4.96a16.366,16.366,0,0,0-10.08,3.84q-8.96,7.04-16.48,20.96,1.92.16,4.32.16a31.909,31.909,0,0,0,17.44-5.44Q280.64,99.84,280.64,91.36ZM433.44,40a11.345,11.345,0,0,1-.8,2.24q-.48,1.28-1.6,3.84L395.2,133.6q-4,9.76-4,12.64,0,4.32,5.76,4.32t11.52-6.72q2.4-2.88,3.04-2.88a.99.99,0,0,1,1.12,1.12q0,2.08-5.28,6.72-6.08,5.44-15.68,5.44-13.12,0-13.12-9.76,0-3.2,4-12.96L418.4,44.16a5.063,5.063,0,0,0,.48-1.12q0-1.44-3.04-1.44-7.04,0-7.04-1.28,0-.96,1.44-.96t4.4.16q2.96.16,4.4.16a59.68,59.68,0,0,0,10.24-.64,16.369,16.369,0,0,1,2.4-.32Q433.44,38.72,433.44,40ZM501.6,88.32q0,5.6-5.44,5.6-2.56,0-3.68-3.04-.32-.64-.8-.64-1.6,0-6.88,8.64l-16.48,26.88q-.96,1.76-22.56,34.56-11.2,17.12-23.2,26.88-7.04,5.76-13.92,5.76-7.2,0-7.2-5.28a5.81,5.81,0,0,1,1.92-4.48,6.834,6.834,0,0,1,4.8-1.76q2.08,0,2.64.64t.72,3.84q.16,2.4,2.24,2.4,2.88,0,8.88-5.12a78.561,78.561,0,0,0,11.28-12q8-10.4,8-18.08,0-2.24-.16-4v-3.84l-.32-46.08q0-11.04-4.8-11.04-5.76,0-11.04,12.32-1.92,4.48-3.2,4.48t-1.28-1.44q0-3.2,4.8-10.4,7.2-10.72,16.96-10.72,7.2,0,9.12,4.8,1.44,3.68,1.44,12.32v4.32l-.48,28.48q0,5.92.32,11.84l2.56-3.84q1.6-2.88,5.12-8.64l5.12-7.84,13.76-22.72Q487.68,88.32,490,85.6a7.52,7.52,0,0,1,6-2.72Q501.6,82.88,501.6,88.32Z" transform="translate(11.4 -37.72)" fill="#0014ff" stroke="#fff" stroke-width="2" style="mix-blend-mode: multiply;isolation: isolate"/>
</svg>
