<svg xmlns="http://www.w3.org/2000/svg" width="207.83" height="88.1" viewBox="0 0 207.83 88.1">
  <g id="グループ_142" data-name="グループ 142" transform="translate(-258.29 -6111.799)">
    <g id="グループ_43" data-name="グループ 43" style="mix-blend-mode: multiply;isolation: isolate">
      <path id="パス_314" data-name="パス 314" d="M1.511,238c0,16.5,10.5,27,25,27s25-10.5,25-27-10.5-27-25-27-25,10.5-25,27m41.6,0c0,12.5-6.6,19.8-16.6,19.8s-16.6-7.3-16.6-19.8,6.6-19.8,16.6-19.8,16.6,7.3,16.6,19.8" transform="translate(257.779 5915.199)" fill="#0f1bf9"/>
      <path id="パス_315" data-name="パス 315" d="M1.511,238c0,16.5,10.5,27,25,27s25-10.5,25-27-10.5-27-25-27S1.511,221.5,1.511,238Zm41.6,0c0,12.5-6.6,19.8-16.6,19.8s-16.6-7.3-16.6-19.8,6.6-19.8,16.6-19.8S43.111,225.5,43.111,238Z" transform="translate(257.779 5915.199)" fill="none" stroke="#fff" stroke-width="2"/>
    </g>
    <g id="グループ_44" data-name="グループ 44" style="mix-blend-mode: multiply;isolation: isolate">
      <path id="パス_316" data-name="パス 316" d="M80.011,212.2v51.6h8V234.4c0-10,6.6-15.2,16.9-15.2h2v-7.7c-1.1-.1-1.9-.1-2.7-.1a18.02,18.02,0,0,0-16.6,9.9v-9.1Z" transform="translate(257.779 5915.199)" fill="#0f1bf9"/>
      <path id="パス_317" data-name="パス 317" d="M80.011,212.2v51.6h8V234.4c0-10,6.6-15.2,16.9-15.2h2v-7.7c-1.1-.1-1.9-.1-2.7-.1a18.02,18.02,0,0,0-16.6,9.9v-9.1Z" transform="translate(257.779 5915.199)" fill="none" stroke="#fff" stroke-width="2"/>
    </g>
    <g id="グループ_45" data-name="グループ 45" style="mix-blend-mode: multiply;isolation: isolate">
      <path id="パス_318" data-name="パス 318" d="M146.411,197.6h-8v14.6h-8.5v7h8.5v34.2c0,7.9,4.9,10.7,12.9,10.7q2.4,0,5.7-.3v-6.7h-4.7c-4.6,0-5.9-1.7-5.9-4.4V219.2h10.6v-7h-10.6Z" transform="translate(257.779 5915.199)" fill="#0f1bf9"/>
      <path id="パス_319" data-name="パス 319" d="M146.411,197.6h-8v14.6h-8.5v7h8.5v34.2c0,7.9,4.9,10.7,12.9,10.7q2.4,0,5.7-.3v-6.7h-4.7c-4.6,0-5.9-1.7-5.9-4.4V219.2h10.6v-7h-10.6Z" transform="translate(257.779 5915.199)" fill="none" stroke="#fff" stroke-width="2"/>
    </g>
    <g id="グループ_46" data-name="グループ 46" style="mix-blend-mode: multiply;isolation: isolate">
      <path id="パス_320" data-name="パス 320" d="M198.211,212.2l-7.3,21.4c-2.6,7.5-5.1,15-7.4,22.4-2.4-7.4-4.8-14.8-7.4-22.3l-7.3-21.5h-8.8l19.4,53.3c-.6,1.6-1.2,3.3-1.8,4.8-1.6,4.1-4.3,6.4-9.4,6.4h-4.7v6.7a39.909,39.909,0,0,0,4.8.3c8.2,0,13.5-2.7,16.8-11.8l21.8-59.7Z" transform="translate(257.779 5915.199)" fill="#0f1bf9"/>
      <path id="パス_321" data-name="パス 321" d="M198.211,212.2l-7.3,21.4c-2.6,7.5-5.1,15-7.4,22.4-2.4-7.4-4.8-14.8-7.4-22.3l-7.3-21.5h-8.8l19.4,53.3c-.6,1.6-1.2,3.3-1.8,4.8-1.6,4.1-4.3,6.4-9.4,6.4h-4.7v6.7a39.909,39.909,0,0,0,4.8.3c8.2,0,13.5-2.7,16.8-11.8l21.8-59.7Z" transform="translate(257.779 5915.199)" fill="none" stroke="#fff" stroke-width="2"/>
    </g>
  </g>
</svg>
